<?xml version="1.0" encoding="UTF-8"?>
<svg version="1.1" xmlns="http://www.w3.org/2000/svg" width="192" height="192">
<path d="M0 0 C1.13739876 -0.01730415 1.13739876 -0.01730415 2.29777527 -0.03495789 C4.80237918 -0.06922181 7.30673679 -0.08775882 9.81152344 -0.10327148 C10.66944237 -0.11017439 11.5273613 -0.11707729 12.41127777 -0.12418938 C16.95273519 -0.16000706 21.49406869 -0.18355468 26.03564453 -0.19726562 C30.71448187 -0.21380149 35.39180457 -0.27221183 40.07013321 -0.34040928 C43.67854227 -0.38529883 47.28659174 -0.39876778 50.89525604 -0.40388298 C52.6192128 -0.41175437 54.34315923 -0.43133213 56.06684113 -0.46310616 C71.22496205 -0.72406988 71.22496205 -0.72406988 76.19360352 3.54614258 C77.30382014 4.77998971 78.38325419 6.04266029 79.42089844 7.33813477 C80.37952926 8.2780133 81.34939211 9.20664427 82.33276367 10.12060547 C83.20618408 10.99289795 84.07960449 11.86519043 84.97949219 12.76391602 C85.45411392 13.23758102 85.92873566 13.71124603 86.41773987 14.19926453 C87.4026848 15.18353823 88.38640577 16.16903824 89.36889648 17.15576172 C90.87661939 18.66892143 92.38971602 20.17656362 93.90332031 21.68383789 C94.86653236 22.6477095 95.82943483 23.6118906 96.79199219 24.57641602 C97.65751709 25.44306885 98.52304199 26.30972168 99.41479492 27.20263672 C102.1949747 30.16213928 102.54665939 31.69677096 102.56806946 35.64509583 C102.57522476 36.54934799 102.58238007 37.45360016 102.5897522 38.38525391 C102.5924411 39.38008789 102.59513 40.37492187 102.59790039 41.39990234 C102.60447159 42.44554855 102.61104279 43.49119476 102.61781311 44.56852722 C102.63757567 48.03990748 102.64921482 51.51124445 102.65917969 54.98266602 C102.66325521 56.16610785 102.66733074 57.34954967 102.67152977 58.56885338 C102.69240233 64.83154502 102.70669938 71.09421467 102.71606445 77.35693359 C102.72713618 83.83369311 102.76154191 90.31010975 102.80123615 96.78674793 C102.82734918 101.75982819 102.83575154 106.73282607 102.83934593 111.70596886 C102.844225 114.09382126 102.85587625 116.48166967 102.87438393 118.86945534 C102.89866343 122.20930989 102.89783053 125.54826829 102.89086914 128.88818359 C102.9036792 129.87694489 102.91648926 130.86570618 102.9296875 131.88442993 C102.89708316 136.170021 102.8429475 138.64426721 100.57902527 142.36625671 C96.1548438 146.40862633 92.97653828 146.63083378 87.23339844 146.61279297 C86.39897217 146.6179039 85.5645459 146.62301483 84.70483398 146.62828064 C81.94344942 146.64219405 79.18231391 146.64121875 76.42089844 146.63891602 C74.50423082 146.64280162 72.58756407 146.647136 70.67089844 146.65190125 C66.65264088 146.65936695 62.63447118 146.65906937 58.61621094 146.65380859 C53.46096089 146.64800955 48.30606961 146.66495377 43.15087891 146.68815327 C39.19268686 146.70286681 35.23458173 146.70376563 31.27636719 146.70064354 C29.37531828 146.70115782 27.47426465 146.70641551 25.57324219 146.71645546 C22.91805517 146.72875832 20.26357371 146.72206577 17.60839844 146.71044922 C16.81973389 146.71809296 16.03106934 146.72573669 15.21850586 146.73361206 C9.93941191 146.68242472 9.93941191 146.68242472 7.40917969 145.00236511 C6.42089844 143.33813477 6.42089844 143.33813477 6.42089844 140.33813477 C3.12089844 140.33813477 -0.17910156 140.33813477 -3.57910156 140.33813477 C-4.04316406 141.54469727 -4.04316406 141.54469727 -4.51660156 142.77563477 C-5.57910156 145.33813477 -5.57910156 145.33813477 -6.57910156 146.33813477 C-10.01660156 146.52563477 -10.01660156 146.52563477 -13.57910156 146.33813477 C-16.19286535 143.72437097 -15.83423296 142.61828858 -15.8465271 138.97491455 C-15.85505707 137.83651123 -15.86358704 136.69810791 -15.87237549 135.52520752 C-15.87146912 134.2701239 -15.87056274 133.01504028 -15.86962891 131.72192383 C-15.87634613 130.40478394 -15.88306335 129.08764404 -15.88998413 127.73059082 C-15.90768811 124.11056866 -15.91234147 120.49064098 -15.9136157 116.87057972 C-15.91551306 113.84887558 -15.92286909 110.82719353 -15.92995989 107.80549788 C-15.94625975 100.6741129 -15.95112756 93.54277842 -15.94970703 86.41137695 C-15.94850659 79.05752183 -15.96958501 71.70396067 -16.00119436 64.35017991 C-16.02736404 58.03670823 -16.03807397 51.72333246 -16.03679621 45.40980697 C-16.03628658 41.6391097 -16.04196939 37.86867331 -16.06315231 34.09803009 C-16.0825455 30.54878649 -16.08265233 27.00005218 -16.06811905 23.45079041 C-16.06503717 21.53156056 -16.0817018 19.61233064 -16.09899902 17.69317627 C-16.02059915 6.94872351 -16.02059915 6.94872351 -11.57910156 2.33813477 C-8.13129871 -0.28971463 -4.17048128 0.02230535 0 0 Z " fill="#4C9DE5" transform="translate(51.5791015625,22.661865234375)"/>
<path d="M0 0 C1.13739876 -0.01730415 1.13739876 -0.01730415 2.29777527 -0.03495789 C4.80237918 -0.06922181 7.30673679 -0.08775882 9.81152344 -0.10327148 C10.66944237 -0.11017439 11.5273613 -0.11707729 12.41127777 -0.12418938 C16.95273519 -0.16000706 21.49406869 -0.18355468 26.03564453 -0.19726562 C30.71448187 -0.21380149 35.39180457 -0.27221183 40.07013321 -0.34040928 C43.67854227 -0.38529883 47.28659174 -0.39876778 50.89525604 -0.40388298 C52.6192128 -0.41175437 54.34315923 -0.43133213 56.06684113 -0.46310616 C71.22496205 -0.72406988 71.22496205 -0.72406988 76.19360352 3.54614258 C77.30382014 4.77998971 78.38325419 6.04266029 79.42089844 7.33813477 C80.37952926 8.2780133 81.34939211 9.20664427 82.33276367 10.12060547 C83.20618408 10.99289795 84.07960449 11.86519043 84.97949219 12.76391602 C85.45411392 13.23758102 85.92873566 13.71124603 86.41773987 14.19926453 C87.4026848 15.18353823 88.38640577 16.16903824 89.36889648 17.15576172 C90.87661939 18.66892143 92.38971602 20.17656362 93.90332031 21.68383789 C94.86653236 22.6477095 95.82943483 23.6118906 96.79199219 24.57641602 C97.65751709 25.44306885 98.52304199 26.30972168 99.41479492 27.20263672 C102.1949747 30.16213928 102.54665939 31.69677096 102.56806946 35.64509583 C102.57522476 36.54934799 102.58238007 37.45360016 102.5897522 38.38525391 C102.5924411 39.38008789 102.59513 40.37492187 102.59790039 41.39990234 C102.60447159 42.44554855 102.61104279 43.49119476 102.61781311 44.56852722 C102.63757567 48.03990748 102.64921482 51.51124445 102.65917969 54.98266602 C102.66325521 56.16610785 102.66733074 57.34954967 102.67152977 58.56885338 C102.69240233 64.83154502 102.70669938 71.09421467 102.71606445 77.35693359 C102.72713618 83.83369311 102.76154191 90.31010975 102.80123615 96.78674793 C102.82734918 101.75982819 102.83575154 106.73282607 102.83934593 111.70596886 C102.844225 114.09382126 102.85587625 116.48166967 102.87438393 118.86945534 C102.89866343 122.20930989 102.89783053 125.54826829 102.89086914 128.88818359 C102.9036792 129.87694489 102.91648926 130.86570618 102.9296875 131.88442993 C102.89708316 136.170021 102.8429475 138.64426721 100.57902527 142.36625671 C96.1548438 146.40862633 92.97653828 146.63083378 87.23339844 146.61279297 C86.39897217 146.6179039 85.5645459 146.62301483 84.70483398 146.62828064 C81.94344942 146.64219405 79.18231391 146.64121875 76.42089844 146.63891602 C74.50423082 146.64280162 72.58756407 146.647136 70.67089844 146.65190125 C66.65264088 146.65936695 62.63447118 146.65906937 58.61621094 146.65380859 C53.46096089 146.64800955 48.30606961 146.66495377 43.15087891 146.68815327 C39.19268686 146.70286681 35.23458173 146.70376563 31.27636719 146.70064354 C29.37531828 146.70115782 27.47426465 146.70641551 25.57324219 146.71645546 C22.91805517 146.72875832 20.26357371 146.72206577 17.60839844 146.71044922 C16.81973389 146.71809296 16.03106934 146.72573669 15.21850586 146.73361206 C9.94403002 146.6824695 9.94403002 146.6824695 7.39746094 145.00627136 C6.42089844 143.33813477 6.42089844 143.33813477 6.60839844 140.27563477 C7.42089844 137.33813477 7.42089844 137.33813477 9.42089844 135.33813477 C11.90347351 135.13659067 14.27647511 135.05805552 16.76049805 135.06689453 C17.51674973 135.06166779 18.2730014 135.05644104 19.0521698 135.05105591 C20.69674029 135.04080259 22.34134335 135.03503319 23.98594475 135.03317451 C26.58726641 135.02952132 29.18820322 135.01282422 31.78944397 134.99241638 C39.18597265 134.93690031 46.58255844 134.90629472 53.97924805 134.88183594 C58.50095232 134.86598049 63.02238395 134.83578227 67.54394722 134.79707146 C69.26912102 134.78540269 70.99434355 134.77949094 72.71955681 134.77939034 C75.13062963 134.77919875 77.54094831 134.76096759 79.9519043 134.73876953 C81.02504883 134.7456353 81.02504883 134.7456353 82.11987305 134.75263977 C84.82226551 134.71298848 86.95873535 134.58532023 89.36543274 133.29811096 C91.04127074 130.18611727 90.81995398 127.02309256 90.77734375 123.57788086 C90.77938812 122.78900986 90.7814325 122.00013885 90.78353882 121.18736267 C90.78654831 118.57853051 90.76806759 115.97032935 90.74902344 113.36157227 C90.74596648 111.55221717 90.74408988 109.74285972 90.74334717 107.9335022 C90.73874333 104.14218132 90.72431235 100.35107275 90.70214844 96.55981445 C90.67382564 91.68921057 90.66293307 86.81877373 90.65846634 81.94809532 C90.65431911 78.21302607 90.64450815 74.4779909 90.63259125 70.742939 C90.62687709 68.94630839 90.6221222 67.14967447 90.61832428 65.35303879 C90.61148444 62.84849977 90.5978641 60.34409585 90.58203125 57.83959961 C90.58035446 56.71594749 90.58035446 56.71594749 90.5786438 55.56959534 C90.85188078 52.16598079 90.85188078 52.16598079 89.42089844 49.33813477 C86.99807426 49.20295247 84.59964281 49.12767083 82.17480469 49.09204102 C80.68326228 49.05910612 79.19172597 49.02589441 77.70019531 48.99243164 C75.33882808 48.94496326 72.97748619 48.9005366 70.6159668 48.86132812 C68.34364846 48.82169605 66.0718427 48.770133 63.79980469 48.71704102 C63.0914296 48.70862686 62.3830545 48.70021271 61.6532135 48.69154358 C56.64757196 48.56480828 56.64757196 48.56480828 54.42089844 46.33813477 C54.00683594 43.73657227 54.00683594 43.73657227 53.79589844 40.71313477 C53.68375 39.20879883 53.68375 39.20879883 53.56933594 37.67407227 C53.52035156 36.90321289 53.47136719 36.13235352 53.42089844 35.33813477 C45.62470256 35.28755852 37.82854874 35.25245363 30.03222656 35.22827148 C27.37823913 35.21819387 24.72426284 35.20453164 22.0703125 35.18725586 C18.26266736 35.16308485 14.4551686 35.15166942 10.64746094 35.14282227 C9.45472565 35.13249969 8.26199036 35.12217712 7.03311157 35.11154175 C5.93212128 35.11139069 4.83113098 35.11123962 3.69677734 35.11108398 C2.72414948 35.10664276 1.75152161 35.10220154 0.74942017 35.09762573 C-1.77213259 35.11068882 -1.77213259 35.11068882 -3.57910156 37.33813477 C-3.86792021 39.28237172 -3.86792021 39.28237172 -3.79942322 41.53793335 C-3.79783707 42.41838821 -3.79625092 43.29884308 -3.7946167 44.20597839 C-3.78271301 45.17433121 -3.77080933 46.14268402 -3.75854492 47.14038086 C-3.7540181 48.15837265 -3.74949127 49.17636444 -3.74482727 50.22520447 C-3.73384759 52.44113065 -3.71832787 54.65703781 -3.69886589 56.87290573 C-3.6688087 60.37750082 -3.65192564 63.88193039 -3.6388092 67.3866272 C-3.59896788 77.35301156 -3.53394747 87.31919672 -3.46264648 97.28540039 C-3.41998568 103.37604825 -3.39185456 109.46662846 -3.37234688 115.55739212 C-3.36176083 117.88188646 -3.34534229 120.20636169 -3.32304192 122.53077316 C-3.29192663 125.77963943 -3.27908832 129.02810749 -3.27026367 132.27709961 C-3.25633575 133.24140396 -3.24240784 134.20570831 -3.22805786 135.19923401 C-3.22929153 136.08532852 -3.23052521 136.97142303 -3.23179626 137.8843689 C-3.22643325 138.65239019 -3.22107023 139.42041149 -3.2155447 140.21170616 C-3.68789784 142.97447956 -4.6322307 144.34075654 -6.57910156 146.33813477 C-10.14160156 146.71313477 -10.14160156 146.71313477 -13.57910156 146.33813477 C-16.19286535 143.72437097 -15.83423296 142.61828858 -15.8465271 138.97491455 C-15.85505707 137.83651123 -15.86358704 136.69810791 -15.87237549 135.52520752 C-15.87146912 134.2701239 -15.87056274 133.01504028 -15.86962891 131.72192383 C-15.87634613 130.40478394 -15.88306335 129.08764404 -15.88998413 127.73059082 C-15.90768811 124.11056866 -15.91234147 120.49064098 -15.9136157 116.87057972 C-15.91551306 113.84887558 -15.92286909 110.82719353 -15.92995989 107.80549788 C-15.94625975 100.6741129 -15.95112756 93.54277842 -15.94970703 86.41137695 C-15.94850659 79.05752183 -15.96958501 71.70396067 -16.00119436 64.35017991 C-16.02736404 58.03670823 -16.03807397 51.72333246 -16.03679621 45.40980697 C-16.03628658 41.6391097 -16.04196939 37.86867331 -16.06315231 34.09803009 C-16.0825455 30.54878649 -16.08265233 27.00005218 -16.06811905 23.45079041 C-16.06503717 21.53156056 -16.0817018 19.61233064 -16.09899902 17.69317627 C-16.02059915 6.94872351 -16.02059915 6.94872351 -11.57910156 2.33813477 C-8.13129871 -0.28971463 -4.17048128 0.02230535 0 0 Z " fill="#4E4F5B" transform="translate(51.5791015625,22.661865234375)"/>
<path d="M0 0 C1.03116943 -0.00953201 2.06233887 -0.01906403 3.12475586 -0.02888489 C4.79356812 -0.02751778 4.79356812 -0.02751778 6.49609375 -0.02612305 C7.63892822 -0.03040817 8.7817627 -0.0346933 9.95922852 -0.03910828 C12.37678362 -0.04485424 14.79435602 -0.04534989 17.21191406 -0.04101562 C20.91891824 -0.03785431 24.62512572 -0.06131725 28.33203125 -0.08666992 C30.67838441 -0.08894267 33.02473972 -0.08964653 35.37109375 -0.08862305 C36.48363525 -0.09783279 37.59617676 -0.10704254 38.74243164 -0.11653137 C40.28918579 -0.10718819 40.28918579 -0.10718819 41.8671875 -0.09765625 C43.22928345 -0.09860039 43.22928345 -0.09860039 44.61889648 -0.0995636 C47.40283673 0.35052167 48.28897711 1.01395288 49.93359375 3.2746582 C50.37109375 6.2746582 50.37109375 6.2746582 49.93359375 9.2746582 C47.00552995 12.12040874 44.88132724 12.6541703 40.86132812 12.67871094 C39.85348267 12.69139511 38.84563721 12.70407928 37.80725098 12.71714783 C36.72488159 12.71421219 35.64251221 12.71127655 34.52734375 12.70825195 C33.41049194 12.7134938 32.29364014 12.71873566 31.14294434 12.72413635 C28.78264192 12.73055716 26.42230751 12.72921883 24.06201172 12.72070312 C20.44701317 12.71218981 16.83359256 12.7409614 13.21875 12.77270508 C10.92578172 12.77431705 8.63281065 12.77373963 6.33984375 12.77075195 C5.25747437 12.78198593 4.17510498 12.79321991 3.05993652 12.80479431 C2.05209106 12.79541336 1.04424561 12.78603241 0.00585938 12.77636719 C-0.87920288 12.77620102 -1.76426514 12.77603485 -2.67614746 12.77586365 C-5.86696264 12.10679219 -7.09103337 10.82047296 -9.06640625 8.2746582 C-9.00390625 5.1496582 -9.00390625 5.1496582 -8.06640625 2.2746582 C-4.78621952 0.08786705 -3.80606436 0.01931145 0 0 Z " fill="#4C99DE" transform="translate(56.06640625,33.725341796875)"/>
<path d="M0 0 C1.28753174 0.00607269 1.28753174 0.00607269 2.60107422 0.01226807 C3.92147705 0.00939789 3.92147705 0.00939789 5.26855469 0.00646973 C7.13135056 0.00510755 8.99415591 0.00880625 10.85693359 0.01715088 C13.71457158 0.02785 16.57158088 0.01725675 19.42919922 0.00445557 C21.23649228 0.00577716 23.04378495 0.00833954 24.85107422 0.01226807 C25.70942871 0.0082196 26.5677832 0.00417114 27.45214844 0 C33.49615677 0.04797562 33.49615677 0.04797562 35.72607422 2.27789307 C36.28686351 7.54931244 36.28686351 7.54931244 34.44287109 9.94503784 C31.47835748 12.24657247 27.82926465 11.7034679 24.22607422 11.67633057 C23.39398438 11.67920074 22.56189453 11.68207092 21.70458984 11.68502808 C19.94611938 11.68706869 18.18762621 11.681539 16.42919922 11.66900635 C13.73597508 11.65295209 11.04425162 11.66885452 8.35107422 11.68804932 C6.64273757 11.68606688 4.93440186 11.68222321 3.22607422 11.67633057 C2.41976562 11.68240326 1.61345703 11.68847595 0.78271484 11.69473267 C-4.82802718 11.62407163 -4.82802718 11.62407163 -6.99072266 9.94503784 C-8.94115508 7.41102497 -8.60301638 5.37134474 -8.27392578 2.27789307 C-5.61322373 -0.38280898 -3.619129 0.02872762 0 0 Z " fill="#4E505D" transform="translate(69.27392578125,126.72210693359375)"/>
<path d="M0 0 C1.09699219 -0.00386719 2.19398437 -0.00773437 3.32421875 -0.01171875 C4.46503906 -0.00011719 5.60585937 0.01148437 6.78125 0.0234375 C8.49248047 0.00603516 8.49248047 0.00603516 10.23828125 -0.01171875 C11.33527344 -0.00785156 12.43226562 -0.00398438 13.5625 0 C14.56345703 0.00338379 15.56441406 0.00676758 16.59570312 0.01025391 C19.68989394 0.45750512 21.07697961 1.20383497 23.28125 3.3984375 C23.73208138 6.48985264 23.94626573 8.4340514 22.13476562 11.06103516 C19.47229287 12.98213971 17.44706413 12.78681462 14.1875 12.796875 C12.99253906 12.80074219 11.79757813 12.80460937 10.56640625 12.80859375 C9.31730469 12.79699219 8.06820312 12.78539063 6.78125 12.7734375 C5.53214844 12.78503906 4.28304687 12.79664062 2.99609375 12.80859375 C1.20365234 12.80279297 1.20365234 12.80279297 -0.625 12.796875 C-1.72134766 12.79349121 -2.81769531 12.79010742 -3.94726562 12.78662109 C-6.71875 12.3984375 -6.71875 12.3984375 -8.57226562 11.06103516 C-10.38376573 8.4340514 -10.16958138 6.48985264 -9.71875 3.3984375 C-6.64018307 0.33337305 -4.25461054 0.01438294 0 0 Z " fill="#4E5363" transform="translate(70.71875,80.6015625)"/>
<path d="M0 0 C7.88861133 6.76166686 7.88861133 6.76166686 11.62109375 10.48828125 C12.41064453 11.27654297 13.20019531 12.06480469 14.01367188 12.87695312 C14.81353516 13.68068359 15.61339844 14.48441406 16.4375 15.3125 C17.26443359 16.13556641 18.09136719 16.95863281 18.94335938 17.80664062 C19.72388672 18.58845703 20.50441406 19.37027344 21.30859375 20.17578125 C22.01814209 20.88645752 22.72769043 21.59713379 23.45874023 22.3293457 C25 24 25 24 25 25 C16.75 25 8.5 25 0 25 C0 16.75 0 8.5 0 0 Z " fill="#4C9BE2" transform="translate(118,35)"/>
<path d="M0 0 C1.08667969 -0.01740234 1.08667969 -0.01740234 2.1953125 -0.03515625 C5.20479509 -0.0184986 7.44264254 0.01569383 10.01171875 1.671875 C11.72145512 4.61829816 10.76274034 7.20669396 10 10.375 C6.71646451 12.01676774 3.10480362 11.55954039 -0.5 11.5625 C-1.28503906 11.57474609 -2.07007812 11.58699219 -2.87890625 11.59960938 C-4.92063726 11.60486254 -6.96192251 11.4972018 -9 11.375 C-11 9.375 -11 9.375 -11.3125 6.4375 C-11 3.375 -11 3.375 -9.98046875 1.70703125 C-6.87319803 -0.38286878 -3.61275107 -0.05785544 0 0 Z " fill="#4E505D" transform="translate(72,103.625)"/>
</svg>
