<?xml version="1.0" encoding="UTF-8"?>
<svg version="1.1" xmlns="http://www.w3.org/2000/svg" width="192" height="192">
<path d="M0 0 C1.45992371 -0.01292336 1.45992371 -0.01292336 2.94934082 -0.02610779 C6.15212951 -0.04872629 9.35404026 -0.04203606 12.55688477 -0.03295898 C14.79216267 -0.03819648 17.02743835 -0.04447342 19.26271057 -0.05174255 C23.94233619 -0.06213929 28.62165758 -0.05759566 33.30126953 -0.04296875 C39.2879124 -0.02578504 45.27359513 -0.04927584 51.26013088 -0.08445835 C55.87480488 -0.10645544 60.48924997 -0.10498514 65.10396004 -0.09669304 C67.31069046 -0.09587474 69.5174379 -0.10271475 71.72411919 -0.11746407 C74.8140695 -0.13495142 77.90230505 -0.12033139 80.9921875 -0.09765625 C81.89685257 -0.10934845 82.80151764 -0.12104065 83.7335968 -0.13308716 C89.98303357 -0.04012944 94.24463926 1.48590709 99.06079102 5.53344727 C103.64424996 11.31643029 103.62444181 16.44560533 103.52172852 23.64672852 C103.52081207 24.69749069 103.51989563 25.74825287 103.51895142 26.83085632 C103.51293274 29.04044136 103.49723924 31.2500189 103.47241211 33.45947266 C103.43572262 36.85227242 103.43139427 40.24398473 103.43188477 43.63696289 C103.42205988 45.78606092 103.41040564 47.93515155 103.39672852 50.08422852 C103.39450287 51.10188797 103.39227722 52.11954742 103.38998413 53.16804504 C103.37722443 54.10629623 103.36446472 55.04454742 103.35131836 56.01123047 C103.33988297 57.25197075 103.33988297 57.25197075 103.32821655 58.51777649 C103.06079102 60.53344727 103.06079102 60.53344727 101.06079102 62.53344727 C100.07079102 62.53344727 99.08079102 62.53344727 98.06079102 62.53344727 C98.06079102 65.50344727 98.06079102 68.47344727 98.06079102 71.53344727 C100.04079102 72.02844727 100.04079102 72.02844727 102.06079102 72.53344727 C103.93935981 74.41201606 103.22796256 77.62602303 103.25366211 80.12939453 C103.26592834 81.16372368 103.26592834 81.16372368 103.27844238 82.21894836 C103.30335304 84.51257452 103.319833 86.80613822 103.33422852 89.09985352 C103.33955219 89.88329573 103.34487587 90.66673794 103.35036087 91.47392082 C103.37712612 95.62632139 103.39648394 99.77869164 103.41088867 103.93115234 C103.42748067 108.20956068 103.47220165 112.48719027 103.52326012 116.76530552 C103.55702968 120.06229977 103.56847706 123.35911219 103.57411575 126.65626335 C103.58080918 128.23225747 103.59598148 129.80824043 103.62000656 131.38406563 C103.83237475 146.1655091 103.83237475 146.1655091 99.81973267 151.97276306 C93.80566036 157.30896489 88.9116791 158.12296361 81.12158203 158.06689453 C80.14829956 158.0755101 79.17501709 158.08412567 78.17224121 158.09300232 C74.96945252 158.11562082 71.76754177 158.10893059 68.56469727 158.09985352 C66.32941936 158.10509101 64.09414368 158.11136795 61.85887146 158.11863708 C57.17924585 158.12903382 52.49992445 158.12449019 47.8203125 158.10986328 C41.83366963 158.09267957 35.8479869 158.11617037 29.86145115 158.15135288 C25.24677716 158.17334997 20.63233206 158.17187967 16.01762199 158.16358757 C13.81089157 158.16276927 11.60414413 158.16960928 9.39746284 158.1843586 C6.30751253 158.20184596 3.21927698 158.18722592 0.12939453 158.16455078 C-1.22760307 158.18208908 -1.22760307 158.18208908 -2.61201477 158.19998169 C-8.87106804 158.10688093 -13.21461685 156.7406007 -17.93920898 152.53344727 C-22.94006405 146.43568633 -22.5140341 140.30292502 -22.47265625 132.65673828 C-22.48127182 131.37134155 -22.48988739 130.08594482 -22.49876404 128.76159668 C-22.52118501 125.25111935 -22.51833563 121.74109442 -22.50944257 118.23057294 C-22.50431678 115.29328695 -22.51163812 112.35608479 -22.51891464 109.41880745 C-22.5358906 102.48616104 -22.53237136 95.55373487 -22.515625 88.62109375 C-22.49870582 81.48349289 -22.51454005 74.34650372 -22.54684788 67.20896965 C-22.57359031 61.06688257 -22.58080731 54.92498535 -22.5723328 48.78284591 C-22.56741704 45.12055534 -22.56954517 41.45863263 -22.59012032 37.79638863 C-22.61197922 33.71039085 -22.59302667 29.6255439 -22.5703125 25.53955078 C-22.5878508 23.73371773 -22.5878508 23.73371773 -22.60574341 21.8914032 C-22.52694139 14.916876 -21.89249363 9.71669045 -16.93920898 4.53344727 C-11.86103246 0.07049466 -6.50925446 -0.04685023 0 0 Z " fill="#CACCD8" transform="translate(54.939208984375,16.466552734375)"/>
<path d="M0 0 C1.45992371 -0.01292336 1.45992371 -0.01292336 2.94934082 -0.02610779 C6.15212951 -0.04872629 9.35404026 -0.04203606 12.55688477 -0.03295898 C14.79216267 -0.03819648 17.02743835 -0.04447342 19.26271057 -0.05174255 C23.94233619 -0.06213929 28.62165758 -0.05759566 33.30126953 -0.04296875 C39.2879124 -0.02578504 45.27359513 -0.04927584 51.26013088 -0.08445835 C55.87480488 -0.10645544 60.48924997 -0.10498514 65.10396004 -0.09669304 C67.31069046 -0.09587474 69.5174379 -0.10271475 71.72411919 -0.11746407 C74.8140695 -0.13495142 77.90230505 -0.12033139 80.9921875 -0.09765625 C81.89685257 -0.10934845 82.80151764 -0.12104065 83.7335968 -0.13308716 C89.98303357 -0.04012944 94.24463926 1.48590709 99.06079102 5.53344727 C103.64424996 11.31643029 103.62444181 16.44560533 103.52172852 23.64672852 C103.52081207 24.69749069 103.51989563 25.74825287 103.51895142 26.83085632 C103.51293274 29.04044136 103.49723924 31.2500189 103.47241211 33.45947266 C103.43572262 36.85227242 103.43139427 40.24398473 103.43188477 43.63696289 C103.42205988 45.78606092 103.41040564 47.93515155 103.39672852 50.08422852 C103.39450287 51.10188797 103.39227722 52.11954742 103.38998413 53.16804504 C103.37722443 54.10629623 103.36446472 55.04454742 103.35131836 56.01123047 C103.33988297 57.25197075 103.33988297 57.25197075 103.32821655 58.51777649 C103.06079102 60.53344727 103.06079102 60.53344727 101.06079102 62.53344727 C96.57289048 63.85715912 91.95065572 63.70208795 87.31079102 63.72631836 C86.00501099 63.73858459 86.00501099 63.73858459 84.67285156 63.75109863 C81.80217159 63.7758426 78.93154049 63.79243545 76.06079102 63.80688477 C74.58763428 63.81487028 74.58763428 63.81487028 73.0847168 63.82301712 C67.89185366 63.84969378 62.69901417 63.86909093 57.50610352 63.88354492 C53.20901334 63.8969122 48.91239487 63.92482393 44.61547852 63.96557617 C39.42253879 64.01482031 34.2300285 64.03965476 29.03686523 64.046772 C27.05927843 64.05349188 25.08170149 64.06873303 23.10424805 64.09266281 C20.33925093 64.12422923 17.57592049 64.12436481 14.81079102 64.11694336 C13.99505615 64.13334869 13.17932129 64.14975403 12.33886719 64.16665649 C8.1102836 64.12018483 6.51454304 63.88455342 3.05335999 61.2063446 C0.481751 57.75670401 0.42939859 55.68048179 0.43188477 51.40454102 C0.42947281 50.73302505 0.42706085 50.06150909 0.42457581 49.36964417 C0.42555111 47.95681829 0.43886961 46.5439527 0.46386719 45.13134766 C0.49825762 42.97304292 0.4844977 40.81881983 0.46508789 38.66040039 C0.47198521 37.28342991 0.48165658 35.90646994 0.49438477 34.52954102 C0.50526123 33.28358154 0.5161377 32.03762207 0.52734375 30.75390625 C1.1740477 26.84970865 1.94255088 25.90611417 5.06079102 23.53344727 C8.25502014 23.03224182 8.25502014 23.03224182 12.07666016 23.03173828 C12.77468246 23.0263353 13.47270477 23.02093231 14.19187927 23.0153656 C16.49366972 23.00288215 18.79420849 23.01936341 21.09594727 23.03735352 C22.6973019 23.03719853 24.29865691 23.0357097 25.90000916 23.03294373 C29.25333267 23.03155998 32.60622834 23.04411467 35.95947266 23.06689453 C40.25944831 23.09530241 44.55871435 23.0925355 48.85874271 23.07980442 C52.16415987 23.07285308 55.46941271 23.08062982 58.77480888 23.09306145 C60.36045133 23.09757966 61.94611139 23.09790951 63.53175545 23.09399605 C65.74631107 23.09108848 67.95988481 23.10756651 70.17431641 23.12939453 C72.06483482 23.13749901 72.06483482 23.13749901 73.99354553 23.14576721 C77.06079102 23.53344727 77.06079102 23.53344727 78.96990967 24.88824463 C80.63979003 27.40665928 80.3975043 29.5247064 80.35375977 32.51391602 C80.3440918 33.67729492 80.33442383 34.84067383 80.32446289 36.03930664 C80.29932617 37.25424805 80.27418945 38.46918945 80.24829102 39.72094727 C80.22798828 41.56076172 80.22798828 41.56076172 80.20727539 43.43774414 C80.17188137 46.46983177 80.11807396 49.50169418 80.06079102 52.53344727 C84.02079102 52.53344727 87.98079102 52.53344727 92.06079102 52.53344727 C92.01662826 47.47909639 91.94678672 42.42599361 91.85327148 37.37231445 C91.82507034 35.65366558 91.80385148 33.93488721 91.78979492 32.21606445 C91.76835268 29.74305979 91.72169946 27.27161052 91.67016602 24.79907227 C91.66893738 24.03226135 91.66770874 23.26545044 91.66644287 22.47540283 C91.57900252 19.28065913 91.38469581 17.01675314 89.58465576 14.33087158 C85.85774884 11.67667502 82.60641326 11.97320434 78.13305664 12.01586914 C76.78119514 12.00535522 76.78119514 12.00535522 75.40202332 11.99462891 C72.42338232 11.97702582 69.44569165 11.98867995 66.46704102 12.00219727 C64.39725563 11.99950302 62.32747148 11.99562116 60.25769043 11.99060059 C55.91996204 11.9847024 51.58256314 11.99327898 47.24487305 12.01196289 C41.68269882 12.03475243 36.12129659 12.0216311 30.5591507 11.99767303 C26.28519873 11.98322384 22.01143 11.98781705 17.73747253 11.9981842 C15.68653777 12.00085391 13.6355864 11.99757318 11.58467102 11.98826599 C8.7188404 11.97811502 5.85426261 11.99358127 2.98852539 12.01586914 C2.13957199 12.00777222 1.29061859 11.99967529 0.41593933 11.99133301 C-0.36629501 12.0026123 -1.14852936 12.0138916 -1.95446777 12.0255127 C-2.96986507 12.02777485 -2.96986507 12.02777485 -4.00577545 12.0300827 C-6.91145888 12.78657008 -8.11745565 14.18998117 -9.93920898 16.53344727 C-10.53529451 19.00402501 -10.53529451 19.00402501 -10.44714355 21.73303223 C-10.45842285 22.7845195 -10.46970215 23.83600677 -10.48132324 24.9193573 C-10.47322632 26.06753433 -10.46512939 27.21571136 -10.45678711 28.39868164 C-10.46379639 29.6120369 -10.47080566 30.82539215 -10.47802734 32.07551575 C-10.49261636 35.4001721 -10.48919742 38.72383275 -10.476511 42.0484333 C-10.46637901 45.52859962 -10.47577722 49.0087236 -10.48205566 52.4888916 C-10.48933153 58.33308546 -10.47974613 64.17707708 -10.46069336 70.02124023 C-10.43892449 76.77650774 -10.44597592 83.53129234 -10.46799898 90.28654814 C-10.48615488 96.0879592 -10.48871045 101.88922494 -10.4782443 107.69065523 C-10.47201032 111.15494991 -10.47117083 114.61901766 -10.48439026 118.08329773 C-10.49809752 121.94512685 -10.47909583 125.80641571 -10.45678711 129.66821289 C-10.46488403 130.81638992 -10.47298096 131.96456696 -10.48132324 133.14753723 C-10.47004395 134.19902451 -10.45876465 135.25051178 -10.44714355 136.3338623 C-10.44563545 137.24677284 -10.44412735 138.15968338 -10.44257355 139.10025787 C-9.77186166 142.34237935 -8.53656589 143.5341261 -5.93920898 145.53344727 C-4.00789889 146.12220764 -4.00789889 146.12220764 -1.95446777 146.04138184 C-1.17223343 146.05266113 -0.38999908 146.06394043 0.41593933 146.07556152 C1.68936943 146.06341614 1.68936943 146.06341614 2.98852539 146.05102539 C3.88976639 146.05803467 4.79100739 146.06504395 5.71955872 146.07226562 C8.69819971 146.08986871 11.67589038 146.07821458 14.65454102 146.06469727 C16.7243264 146.06739151 18.79411055 146.07127337 20.8638916 146.07629395 C25.20161999 146.08219213 29.53901889 146.07361555 33.87670898 146.05493164 C39.43888321 146.0321421 45.00028544 146.04526344 50.56243134 146.0692215 C54.83638331 146.08367069 59.11015203 146.07907748 63.3841095 146.06871033 C65.43504426 146.06604062 67.48599563 146.06932135 69.53691101 146.07862854 C72.40274163 146.08877951 75.26731942 146.07331327 78.13305664 146.05102539 C78.98201004 146.05912231 79.83096344 146.06721924 80.7056427 146.07556152 C84.36546513 146.02278933 86.46014564 145.91913574 89.58763123 143.91090393 C91.53325927 140.77095511 91.55960478 138.66457074 91.55908203 134.9765625 C91.56460083 134.32730804 91.57011963 133.67805359 91.57580566 133.00912476 C91.58510851 131.60414589 91.58524489 130.19908269 91.57721138 128.79409599 C91.56457426 126.57039664 91.57587441 124.3479372 91.59324646 122.12428284 C91.61993921 118.2077808 91.62554229 114.29158316 91.62414551 110.375 C91.62191608 104.10266532 91.6359782 97.83070641 91.67973137 91.55851936 C91.68958297 89.36746148 91.68084728 87.17699256 91.67103577 84.98594666 C91.67717881 83.64427298 91.68409015 82.30260254 91.69189453 80.9609375 C91.69093277 79.78941635 91.68997101 78.6178952 91.6889801 77.41087341 C92.06079102 74.53344727 92.06079102 74.53344727 93.3924408 72.65126038 C95.96244033 70.92933225 98.05645395 71.21383694 101.06079102 71.53344727 C103.89755126 74.37020751 103.33336545 76.26779692 103.3671875 80.24291992 C103.37551102 80.93261871 103.38383453 81.6223175 103.39241028 82.33291626 C103.4165717 84.62117109 103.42529249 86.90914074 103.43188477 89.19750977 C103.44085106 90.78974493 103.44997291 92.38197923 103.45924377 93.97421265 C103.47575618 97.31835985 103.48343715 100.66240673 103.48632812 104.0065918 C103.49169445 108.27717451 103.52929082 112.54680338 103.57507229 116.81711769 C103.6049346 120.10984664 103.61205376 123.40234932 103.61305428 126.69520187 C103.61724349 128.26838901 103.62962547 129.84157763 103.65057182 131.41463089 C103.83112688 146.1560451 103.83112688 146.1560451 99.8184967 151.9715271 C93.80892869 157.3117075 88.90954787 158.12294827 81.12158203 158.06689453 C80.14829956 158.0755101 79.17501709 158.08412567 78.17224121 158.09300232 C74.96945252 158.11562082 71.76754177 158.10893059 68.56469727 158.09985352 C66.32941936 158.10509101 64.09414368 158.11136795 61.85887146 158.11863708 C57.17924585 158.12903382 52.49992445 158.12449019 47.8203125 158.10986328 C41.83366963 158.09267957 35.8479869 158.11617037 29.86145115 158.15135288 C25.24677716 158.17334997 20.63233206 158.17187967 16.01762199 158.16358757 C13.81089157 158.16276927 11.60414413 158.16960928 9.39746284 158.1843586 C6.30751253 158.20184596 3.21927698 158.18722592 0.12939453 158.16455078 C-1.22760307 158.18208908 -1.22760307 158.18208908 -2.61201477 158.19998169 C-8.87106804 158.10688093 -13.21461685 156.7406007 -17.93920898 152.53344727 C-22.94006405 146.43568633 -22.5140341 140.30292502 -22.47265625 132.65673828 C-22.48127182 131.37134155 -22.48988739 130.08594482 -22.49876404 128.76159668 C-22.52118501 125.25111935 -22.51833563 121.74109442 -22.50944257 118.23057294 C-22.50431678 115.29328695 -22.51163812 112.35608479 -22.51891464 109.41880745 C-22.5358906 102.48616104 -22.53237136 95.55373487 -22.515625 88.62109375 C-22.49870582 81.48349289 -22.51454005 74.34650372 -22.54684788 67.20896965 C-22.57359031 61.06688257 -22.58080731 54.92498535 -22.5723328 48.78284591 C-22.56741704 45.12055534 -22.56954517 41.45863263 -22.59012032 37.79638863 C-22.61197922 33.71039085 -22.59302667 29.6255439 -22.5703125 25.53955078 C-22.5878508 23.73371773 -22.5878508 23.73371773 -22.60574341 21.8914032 C-22.52694139 14.916876 -21.89249363 9.71669045 -16.93920898 4.53344727 C-11.86103246 0.07049466 -6.50925446 -0.04685023 0 0 Z " fill="#50505B" transform="translate(54.939208984375,16.466552734375)"/>
<path d="M0 0 C18.81 0 37.62 0 57 0 C57 5.61 57 11.22 57 17 C38.19 17 19.38 17 0 17 C0 11.39 0 5.78 0 0 Z " fill="#FCCA57" transform="translate(67,51)"/>
<path d="M0 0 C1.08152344 0.01417969 2.16304688 0.02835938 3.27734375 0.04296875 C4.90349609 0.05263672 4.90349609 0.05263672 6.5625 0.0625 C9.21484375 0.23046875 9.21484375 0.23046875 10.21484375 1.23046875 C10.31377315 3.39527672 10.34455475 5.5634066 10.33984375 7.73046875 C10.34242188 8.91640625 10.345 10.10234375 10.34765625 11.32421875 C10.21484375 14.23046875 10.21484375 14.23046875 9.21484375 15.23046875 C7.23864928 15.35561803 5.25746202 15.40619635 3.27734375 15.41796875 C2.19582031 15.43214844 1.11429687 15.44632813 0 15.4609375 C-2.78515625 15.23046875 -2.78515625 15.23046875 -4.78515625 13.23046875 C-5.05078125 10.69921875 -5.05078125 10.69921875 -5.03515625 7.73046875 C-5.0403125 6.75078125 -5.04546875 5.77109375 -5.05078125 4.76171875 C-4.661759 1.05456551 -3.67924828 0.30445393 0 0 Z " fill="#53535F" transform="translate(123.78515625,136.76953125)"/>
<path d="M0 0 C1.08152344 0.01417969 2.16304688 0.02835937 3.27734375 0.04296875 C4.90349609 0.05263672 4.90349609 0.05263672 6.5625 0.0625 C9.21484375 0.23046875 9.21484375 0.23046875 10.21484375 1.23046875 C10.31377315 3.39527672 10.34455475 5.5634066 10.33984375 7.73046875 C10.34242188 8.91640625 10.345 10.10234375 10.34765625 11.32421875 C10.21484375 14.23046875 10.21484375 14.23046875 9.21484375 15.23046875 C7.23864928 15.35561803 5.25746202 15.40619635 3.27734375 15.41796875 C2.19582031 15.43214844 1.11429687 15.44632813 0 15.4609375 C-2.78515625 15.23046875 -2.78515625 15.23046875 -4.78515625 13.23046875 C-5.05078125 10.69921875 -5.05078125 10.69921875 -5.03515625 7.73046875 C-5.0403125 6.75078125 -5.04546875 5.77109375 -5.05078125 4.76171875 C-4.661759 1.05456551 -3.67924828 0.30445393 0 0 Z " fill="#545460" transform="translate(123.78515625,91.76953125)"/>
<path d="M0 0 C1.1859375 0.00257812 2.371875 0.00515625 3.59375 0.0078125 C4.7796875 0.00523438 5.965625 0.00265625 7.1875 0 C10.09375 0.1328125 10.09375 0.1328125 11.09375 1.1328125 C11.21889928 3.10900697 11.2694776 5.09019423 11.28125 7.0703125 C11.29542969 8.15183594 11.30960938 9.23335937 11.32421875 10.34765625 C11.09375 13.1328125 11.09375 13.1328125 9.09375 15.1328125 C6.5625 15.3984375 6.5625 15.3984375 3.59375 15.3828125 C2.6140625 15.38796875 1.634375 15.393125 0.625 15.3984375 C-1.90625 15.1328125 -1.90625 15.1328125 -3.90625 13.1328125 C-4.13671875 10.34765625 -4.13671875 10.34765625 -4.09375 7.0703125 C-4.08730469 5.98621094 -4.08085938 4.90210937 -4.07421875 3.78515625 C-3.83921102 0.07422022 -3.74975821 0.17135992 0 0 Z " fill="#52525E" transform="translate(91.90625,91.8671875)"/>
<path d="M0 0 C1.08410156 0.00257812 2.16820312 0.00515625 3.28515625 0.0078125 C4.90744141 0.00394531 4.90744141 0.00394531 6.5625 0 C9.34765625 0.1328125 9.34765625 0.1328125 11.34765625 1.1328125 C11.40154712 3.09084757 11.44039842 5.04930159 11.47265625 7.0078125 C11.49585937 8.09835938 11.5190625 9.18890625 11.54296875 10.3125 C11.34765625 13.1328125 11.34765625 13.1328125 9.34765625 15.1328125 C6.81640625 15.3984375 6.81640625 15.3984375 3.84765625 15.3828125 C2.86796875 15.38796875 1.88828125 15.393125 0.87890625 15.3984375 C-1.65234375 15.1328125 -1.65234375 15.1328125 -3.65234375 13.1328125 C-3.8828125 10.34765625 -3.8828125 10.34765625 -3.83984375 7.0703125 C-3.83339844 5.98621094 -3.82695313 4.90210937 -3.8203125 3.78515625 C-3.59466636 0.22204627 -3.56774155 0.1786498 0 0 Z " fill="#52525E" transform="translate(59.65234375,91.8671875)"/>
<path d="M0 0 C0.9796875 0.00515625 1.959375 0.0103125 2.96875 0.015625 C3.9484375 0.01046875 4.928125 0.0053125 5.9375 0 C8.46875 0.265625 8.46875 0.265625 10.46875 2.265625 C10.734375 4.796875 10.734375 4.796875 10.71875 7.765625 C10.72390625 8.7453125 10.7290625 9.725 10.734375 10.734375 C10.46875 13.265625 10.46875 13.265625 8.46875 15.265625 C5.9375 15.53125 5.9375 15.53125 2.96875 15.515625 C1.9890625 15.52078125 1.009375 15.5259375 0 15.53125 C-2.53125 15.265625 -2.53125 15.265625 -4.53125 13.265625 C-4.796875 10.734375 -4.796875 10.734375 -4.78125 7.765625 C-4.78640625 6.7859375 -4.7915625 5.80625 -4.796875 4.796875 C-4.42652019 1.26761155 -3.52926345 0.37035481 0 0 Z " fill="#50505C" transform="translate(92.53125,136.734375)"/>
<path d="M0 0 C0.9796875 0.00515625 1.959375 0.0103125 2.96875 0.015625 C3.9484375 0.01046875 4.928125 0.0053125 5.9375 0 C8.46875 0.265625 8.46875 0.265625 10.46875 2.265625 C10.734375 4.796875 10.734375 4.796875 10.71875 7.765625 C10.72390625 8.7453125 10.7290625 9.725 10.734375 10.734375 C10.46875 13.265625 10.46875 13.265625 8.46875 15.265625 C5.9375 15.53125 5.9375 15.53125 2.96875 15.515625 C1.9890625 15.52078125 1.009375 15.5259375 0 15.53125 C-2.53125 15.265625 -2.53125 15.265625 -4.53125 13.265625 C-4.796875 10.734375 -4.796875 10.734375 -4.78125 7.765625 C-4.78640625 6.7859375 -4.7915625 5.80625 -4.796875 4.796875 C-4.42652019 1.26761155 -3.52926345 0.37035481 0 0 Z " fill="#50505C" transform="translate(60.53125,136.734375)"/>
<path d="M0 0 C1.1859375 0.00257812 2.371875 0.00515625 3.59375 0.0078125 C4.7796875 0.00523438 5.965625 0.00265625 7.1875 0 C10.09375 0.1328125 10.09375 0.1328125 11.09375 1.1328125 C11.19248816 3.13080822 11.22346799 5.13238408 11.21875 7.1328125 C11.22132812 8.2259375 11.22390625 9.3190625 11.2265625 10.4453125 C11.09375 13.1328125 11.09375 13.1328125 10.09375 14.1328125 C7.92894203 14.2317419 5.76081215 14.2625235 3.59375 14.2578125 C2.4078125 14.26039063 1.221875 14.26296875 0 14.265625 C-2.90625 14.1328125 -2.90625 14.1328125 -3.90625 13.1328125 C-4.00498816 11.13481678 -4.03596799 9.13324092 -4.03125 7.1328125 C-4.03382812 6.0396875 -4.03640625 4.9465625 -4.0390625 3.8203125 C-3.8541771 0.07910203 -3.77031877 0.17229951 0 0 Z " fill="#51515D" transform="translate(91.90625,114.8671875)"/>
<path d="M0 0 C1.1859375 0.00257812 2.371875 0.00515625 3.59375 0.0078125 C4.7796875 0.00523438 5.965625 0.00265625 7.1875 0 C10.09375 0.1328125 10.09375 0.1328125 11.09375 1.1328125 C11.19248816 3.13080822 11.22346799 5.13238408 11.21875 7.1328125 C11.22132812 8.2259375 11.22390625 9.3190625 11.2265625 10.4453125 C11.09375 13.1328125 11.09375 13.1328125 10.09375 14.1328125 C7.92894203 14.2317419 5.76081215 14.2625235 3.59375 14.2578125 C2.4078125 14.26039063 1.221875 14.26296875 0 14.265625 C-2.90625 14.1328125 -2.90625 14.1328125 -3.90625 13.1328125 C-4.00498816 11.13481678 -4.03596799 9.13324092 -4.03125 7.1328125 C-4.03382812 6.0396875 -4.03640625 4.9465625 -4.0390625 3.8203125 C-3.8541771 0.07910203 -3.77031877 0.17229951 0 0 Z " fill="#50505C" transform="translate(59.90625,114.8671875)"/>
<path d="M0 0 C2.14576637 -0.02685938 4.29162645 -0.04633088 6.4375 -0.0625 C7.63246094 -0.07410156 8.82742187 -0.08570312 10.05859375 -0.09765625 C13 0 13 0 14 1 C14.09873816 2.99799572 14.12971799 4.99957158 14.125 7 C14.12757813 8.093125 14.13015625 9.18625 14.1328125 10.3125 C14 13 14 13 13 14 C10.81360547 14.07258946 8.62499611 14.08373783 6.4375 14.0625 C4.64119141 14.04896484 4.64119141 14.04896484 2.80859375 14.03515625 C1.88175781 14.02355469 0.95492187 14.01195312 0 14 C-1.24377393 11.51245214 -1.13306235 9.77344699 -1.125 7 C-1.12757812 6.113125 -1.13015625 5.22625 -1.1328125 4.3125 C-1 2 -1 2 0 0 Z " fill="#52525E" transform="translate(120,115)"/>
</svg>
