<?xml version="1.0" encoding="UTF-8"?>
<svg version="1.1" xmlns="http://www.w3.org/2000/svg" width="192" height="192">
<path d="M0 0 C1.12656509 -0.00700928 2.25313019 -0.01401855 3.41383362 -0.02124023 C7.11012975 -0.03873802 10.80565021 -0.02722591 14.50195312 -0.01367188 C17.08687486 -0.01636913 19.67179559 -0.02025349 22.25671387 -0.02526855 C27.66327561 -0.03115253 33.06954987 -0.02302211 38.47607422 -0.00390625 C44.70308696 0.01785808 50.92957562 0.01080495 57.15657568 -0.01121187 C63.17729696 -0.03163726 69.19776443 -0.02936596 75.21852112 -0.01768494 C77.76689224 -0.01502582 80.31527683 -0.01825854 82.8636322 -0.02760315 C86.43157856 -0.03781681 89.99853331 -0.02219864 93.56640625 0 C94.60877945 -0.00809692 95.65115265 -0.01619385 96.72511292 -0.02453613 C104.65192016 0.06634947 111.66738728 1.59302119 117.93945312 6.66601562 C118.54789063 7.40078125 119.15632812 8.13554687 119.78320312 8.89257812 C120.72679687 9.98699219 120.72679687 9.98699219 121.68945312 11.10351562 C125.86811629 17.4329613 125.57977677 23.85924276 125.57373047 31.17919922 C125.58044769 32.34740707 125.58716492 33.51561493 125.59408569 34.71922302 C125.61306547 38.57653062 125.61698981 42.43366425 125.61914062 46.29101562 C125.62394309 48.2972555 125.62874914 50.3034954 125.63406146 52.30973399 C125.650321 58.61568185 125.65523261 64.92157264 125.65380859 71.22753906 C125.65260743 77.71803742 125.67370957 84.20820313 125.70529592 90.69861734 C125.73150433 96.28439556 125.742174 101.87006542 125.74089777 107.4559046 C125.7403895 110.78626084 125.7478545 114.11608605 125.76725388 117.44642258 C125.78688071 121.16361751 125.78108782 124.87995887 125.76904297 128.59716797 C125.78028198 129.69041885 125.791521 130.78366974 125.80310059 131.91004944 C125.7353036 140.15690552 123.62928085 145.03197694 119.09570312 151.76757812 C112.21099408 158.49929364 104.54227098 159.10417312 95.28100586 159.03515625 C94.11235992 159.04216553 92.94371399 159.0491748 91.73965454 159.05639648 C87.89845625 159.07392044 84.05800192 159.06237346 80.21679688 159.04882812 C77.53596591 159.05152445 74.85515708 159.05540252 72.17433167 159.0604248 C66.56511454 159.06768133 60.95610879 159.05816525 55.34692383 159.0390625 C48.87848311 159.0172867 42.41054667 159.02435785 35.94211811 159.04636812 C30.3689903 159.06456669 24.79601358 159.06705913 19.22286564 159.05661345 C15.90270026 159.05040418 12.58282148 159.05106176 9.26266289 159.0627594 C5.56009934 159.0729434 1.85849794 159.05739632 -1.84399414 159.03515625 C-2.93253189 159.04325317 -4.02106964 159.0513501 -5.14259338 159.05969238 C-13.10685706 158.97128476 -18.41841935 157.3661769 -24.46679688 152.14257812 C-28.99478552 146.85992471 -31.83350879 142.63387319 -31.85723877 135.61029053 C-31.86294891 134.59817001 -31.86865906 133.5860495 -31.87454224 132.54325867 C-31.8756601 131.43360245 -31.87677795 130.32394623 -31.87792969 129.18066406 C-31.88289459 128.01128799 -31.8878595 126.84191193 -31.89297485 125.63710022 C-31.90508366 122.42822661 -31.91254196 119.21938943 -31.91698551 116.01049709 C-31.91991865 114.00415962 -31.92402397 111.99782783 -31.92848969 109.99149323 C-31.94216324 103.70973257 -31.95182996 97.42798494 -31.95569158 91.14621043 C-31.96016883 83.90330339 -31.97770168 76.66058539 -32.00669217 69.41773582 C-32.02833953 63.81421136 -32.03839752 58.21073997 -32.03973269 52.60717416 C-32.04077878 49.2629035 -32.04809788 45.91895161 -32.06455231 42.5746994 C-32.08161331 38.84034427 -32.07973195 35.10644864 -32.07324219 31.37207031 C-32.08245697 30.27051102 -32.09167175 29.16895172 -32.10116577 28.03401184 C-32.05837181 20.17009894 -30.83758931 14.50672882 -25.65429688 8.33007812 C-24.89439453 7.38068359 -24.89439453 7.38068359 -24.11914062 6.41210938 C-16.91895035 0.73391054 -8.87511212 -0.0689399 0 0 Z " fill="#4F505C" transform="translate(47.716796875,16.482421875)"/>
<path d="M0 0 C1.19036629 -0.00054241 1.19036629 -0.00054241 2.40478039 -0.00109577 C4.96241558 0.0011356 7.51938712 0.02394486 10.0769043 0.04760742 C11.66035649 0.0520207 13.24381306 0.05507974 14.82727051 0.0567627 C20.68528829 0.07246329 26.54321225 0.11434713 32.40112305 0.15307617 C45.49799805 0.21495117 58.59487305 0.27682617 72.08862305 0.34057617 C72.08862305 44.56057617 72.08862305 88.78057617 72.08862305 134.34057617 C58.84737305 134.44370117 45.60612305 134.54682617 31.96362305 134.65307617 C25.70240479 134.7213562 25.70240479 134.7213562 19.31469727 134.79101562 C14.20019531 134.81359863 14.20019531 134.81359863 11.80252075 134.8177948 C10.13521649 134.82545073 8.46793917 134.84299109 6.80081177 134.86845398 C4.2684962 134.90518312 1.73786523 134.91010243 -0.79467773 134.90820312 C-1.53192644 134.92619367 -2.26917515 134.94418421 -3.02876472 134.96271992 C-6.83517665 134.92463565 -9.3408483 134.38238597 -12.29367065 132.05509949 C-15.94718715 128.26645608 -17.15796492 125.74295513 -17.17880249 120.49612427 C-17.19159744 119.03681992 -17.19159744 119.03681992 -17.20465088 117.54803467 C-17.20374451 116.48715637 -17.20283813 115.42627808 -17.2019043 114.33325195 C-17.20862152 113.21089142 -17.21533875 112.08853088 -17.22225952 110.93215942 C-17.24127939 107.21669098 -17.24516573 103.50140279 -17.24731445 99.78588867 C-17.25373946 97.20522995 -17.2604676 94.62457197 -17.26748657 92.04391479 C-17.27946924 86.63187664 -17.28325196 81.21991012 -17.28198242 75.80786133 C-17.28078123 69.55934338 -17.30187996 63.31117097 -17.33346975 57.06274045 C-17.36280924 51.04419106 -17.36995758 45.02582878 -17.36876297 39.00719833 C-17.37112422 36.44992537 -17.37997708 33.89264989 -17.3954277 31.33542252 C-17.41501369 27.75888615 -17.4092778 24.18324002 -17.3972168 20.60668945 C-17.40845581 19.54985962 -17.41969482 18.49302979 -17.43127441 17.4041748 C-17.38128292 11.57305368 -17.03538847 7.82823263 -12.91137695 3.34057617 C-8.86095155 0.01173529 -5.04762622 -0.07448711 0 0 Z " fill="#CCCEDA" transform="translate(44.911376953125,28.659423828125)"/>
<path d="M0 0 C22 0 22 0 29 4 C31.76921176 7.48345013 32.37207853 10.03303145 32.34057617 14.43286133 C32.34023628 16.02394463 32.34023628 16.02394463 32.33988953 17.64717102 C32.32440567 18.7806749 32.30892181 19.91417877 32.29296875 21.08203125 C32.28872391 22.25134689 32.28447906 23.42066254 32.28010559 24.62541199 C32.26333285 28.354677 32.22568192 32.08339872 32.1875 35.8125 C32.17245141 38.34309115 32.15876331 40.87369077 32.14648438 43.40429688 C32.11598776 49.60324154 32.05726056 55.80101368 32 62 C21.44 62 10.88 62 0 62 C0 41.54 0 21.08 0 0 Z " fill="#62DDBC" transform="translate(129,29)"/>
<path d="M0 0 C10.56 0 21.12 0 32 0 C32.0919139 7.15396518 32.17153143 14.30587538 32.21972656 21.45996094 C32.23982071 23.89264881 32.26710088 26.32528851 32.30175781 28.7578125 C32.3503706 32.25793355 32.37299139 35.75741502 32.390625 39.2578125 C32.41127014 40.34240753 32.43191528 41.42700256 32.45318604 42.54446411 C32.4549598 48.53641088 32.20964901 52.35904207 28 57 C24 60 24 60 0 60 C0 40.2 0 20.4 0 0 Z " fill="#66D2F0" transform="translate(129,103)"/>
<path d="M0 0 C3.96930989 -0.02465881 7.93859034 -0.04284023 11.90795898 -0.05493164 C13.25920386 -0.05997057 14.61044326 -0.06680177 15.96166992 -0.07543945 C17.90020434 -0.08752419 19.838778 -0.09269828 21.77734375 -0.09765625 C23.52905884 -0.10551147 23.52905884 -0.10551147 25.31616211 -0.11352539 C28 0 28 0 29 1 C29.46823076 5.40136912 29.00824596 8.36813256 27.2734375 12.4375 C24.27091565 19.69676168 21.71075172 27.10936275 19.09179688 34.51367188 C18.51461914 36.13305664 18.51461914 36.13305664 17.92578125 37.78515625 C17.57942627 38.76363525 17.23307129 39.74211426 16.8762207 40.75024414 C16 43 16 43 15 44 C12.32941149 44.14115161 9.67567762 44.04247107 7 44 C7.58246195 38.12815387 9.25362325 33.1125283 11.375 27.625 C11.98838818 26.01355646 12.60037332 24.40157815 13.2109375 22.7890625 C13.50838867 22.0043457 13.80583984 21.21962891 14.11230469 20.41113281 C15.50175076 16.63715883 16.75132094 12.82264325 18 9 C12.06 8.67 6.12 8.34 0 8 C0 5.36 0 2.72 0 0 Z " fill="#51515D" transform="translate(60,74)"/>
</svg>
