<?xml version="1.0" encoding="UTF-8"?>
<svg version="1.1" xmlns="http://www.w3.org/2000/svg" width="192" height="192">
<path d="M0 0 C1.04607422 0.86818359 1.04607422 0.86818359 2.11328125 1.75390625 C5.47948156 4.76932015 6.88985711 6.07165279 7.4375 10.6875 C7.293125 11.780625 7.14875 12.87375 7 14 C7 18.56996508 7.88046252 20.54084335 10.2890625 24.29296875 C12.95927292 26.9570828 15.55902055 26.96728275 19.20703125 27.0625 C19.79871094 27.041875 20.39039063 27.02125 21 27 C30.47668955 50.40235931 31.56207903 73.24048507 22 97 C12.11554502 118.75700147 -5.90973592 133.56818703 -27.8203125 141.90625 C-31.85758676 143.29499299 -35.28919707 144.16323243 -39.5625 144.25 C-40.70912109 144.28867187 -40.70912109 144.28867187 -41.87890625 144.328125 C-44 144 -44 144 -45.37109375 142.4921875 C-47.89832677 140.17707236 -50.16426086 140.74728026 -53.5 140.875 C-59.74233129 141.08588957 -59.74233129 141.08588957 -63 140 C-63.66 141.65 -64.32 143.3 -65 145 C-87.87065875 140.83862274 -106.95208082 130.41663958 -121.125 111.78515625 C-134.25810223 92.27702732 -139.52693799 69.51202542 -135.24609375 46.1484375 C-131.51153901 29.34102601 -131.51153901 29.34102601 -125 25 C-123.68 25 -122.36 25 -121 25 C-120.773125 24.29875 -120.54625 23.5975 -120.3125 22.875 C-119 20 -119 20 -116.3125 17.125 C-115.549375 16.09375 -114.78625 15.0625 -114 14 C-114.2475 12.906875 -114.495 11.81375 -114.75 10.6875 C-115 7 -115 7 -113.57421875 4.87109375 C-101.13954785 -8.20008682 -84.5576652 -15.8136903 -67 -19 C-66.16597656 -19.15597656 -65.33195312 -19.31195313 -64.47265625 -19.47265625 C-41.25031546 -22.66435238 -17.61506823 -15.10335118 0 0 Z " fill="#4F515D" transform="translate(150,32)"/>
<path d="M0 0 C2.79614221 2.41868327 3.92438374 4.77797481 5.26489258 8.19897461 C5.68575638 9.26115707 6.10662018 10.32333954 6.54023743 11.41770935 C6.98715439 12.5676387 7.43407135 13.71756805 7.89453125 14.90234375 C8.61275851 16.71852185 9.33099186 18.53469757 10.04956341 20.35073948 C11.05594704 22.89947174 12.05538371 25.45090274 13.05462646 28.00244141 C14.78846125 32.42939623 16.52657457 36.85463717 18.27458191 41.27601624 C19.20277968 43.62580203 20.12588709 45.97760754 21.04292297 48.33177185 C28.83293952 68.5594674 28.83293952 68.5594674 45 82 C49.33979725 83.68903466 53.23502827 84.3409201 57.875 84.625 C59.49752686 84.72433838 59.49752686 84.72433838 61.15283203 84.82568359 C62.09239746 84.88320801 63.03196289 84.94073242 64 85 C59.1821799 92.67713856 54.19044856 100.2144837 49.0625 107.6875 C48.03672852 109.18700195 48.03672852 109.18700195 46.99023438 110.71679688 C45.32840646 113.14562228 43.66498046 115.57333513 42 118 C36.79409123 117.24336995 32.89206979 115.79684863 28.25 113.4375 C27.54552734 113.08034912 26.84105469 112.72319824 26.11523438 112.35522461 C8.31244897 103.05608406 -2.79149839 88.05050649 -9.06640625 69.1640625 C-10.17671293 65.40109843 -10.90727135 61.90785013 -11 58 C-11.03867187 56.80632812 -11.07734375 55.61265625 -11.1171875 54.3828125 C-11.36624944 43.07022878 -10.67017309 32.61863003 -5.70703125 22.25390625 C-4.81297427 19.40379091 -5.06011968 17.81964097 -6 15 C-7.4579186 13.20614008 -7.4579186 13.20614008 -9 12 C-7.87749844 10.37327315 -6.75191267 8.74867418 -5.625 7.125 C-4.68527344 5.76761719 -4.68527344 5.76761719 -3.7265625 4.3828125 C-2 2 -2 2 0 0 Z " fill="#66D2EF" transform="translate(37,45)"/>
<path d="M0 0 C13.2 0 26.4 0 40 0 C42.20110053 8.07070196 43.5250214 14.15806074 43.4375 22.25 C43.42920166 23.25144043 43.42090332 24.25288086 43.41235352 25.28466797 C43.00186037 43.44862426 36.04519631 58.48480706 24 72 C23.26136719 72.8559375 22.52273437 73.711875 21.76171875 74.59375 C12.2010332 84.98375852 -0.03382687 90.09664941 -13.828125 92.4375 C-16.19194456 92.85378767 -16.19194456 92.85378767 -18 95 C-18.64767793 97.57061311 -18.64767793 97.57061311 -19 100 C-23.56120312 101.17708468 -28.31612353 101.51750695 -33 101 C-33.99 100.34 -34.98 99.68 -36 99 C-35.66111252 98.49904312 -35.32222504 97.99808624 -34.97306824 97.48194885 C-31.38470779 92.17676243 -27.79876783 86.86994565 -24.21411133 81.56225586 C-22.88332734 79.59245188 -21.55196547 77.62303817 -20.2199707 75.65405273 C-15.79614882 69.11412773 -11.38954961 62.56297637 -7 56 C-6.44233948 55.16893738 -5.88467896 54.33787476 -5.31011963 53.48162842 C-3.77702486 51.19027625 -2.25562743 48.89164564 -0.73828125 46.58984375 C-0.29727585 45.93303116 0.14372955 45.27621857 0.59809875 44.59950256 C6.75406512 35.1774399 8.01770974 26.11737272 7 15 C5.54260272 9.36330169 2.99228454 4.9871409 0 0 Z " fill="#66D2EF" transform="translate(123,72)"/>
<path d="M0 0 C3.95037814 3.27789316 7.86076977 6.60295727 11.4921875 10.234375 C12.5646875 10.275625 13.6371875 10.316875 14.7421875 10.359375 C19.49208053 11.46768337 20.61885587 13.26783554 23.328125 17.12890625 C24.46946271 19.19327211 24.97020631 20.95167669 25.4921875 23.234375 C24.58731598 23.23802063 23.68244446 23.24166626 22.75015259 23.24542236 C14.18825534 23.28341825 5.62673453 23.34040191 -2.93489647 23.41827774 C-7.33568098 23.4576489 -11.7362685 23.48988783 -16.13720703 23.50537109 C-20.39092333 23.52060643 -24.64409769 23.55517229 -28.89757156 23.60268402 C-30.51367078 23.61742736 -32.1298474 23.62541194 -33.74601364 23.62625885 C-46.56843533 23.63972574 -55.97544628 25.10843065 -65.58984375 34.1953125 C-67.97104852 36.72685811 -69.77787519 39.22578837 -71.5078125 42.234375 C-74.92356884 37.11074049 -76.98353971 31.23641376 -79.32275391 25.5559082 C-79.94654738 24.04886877 -80.57710308 22.54461076 -81.21435547 21.04321289 C-82.1346238 18.87461981 -83.03425569 16.69847719 -83.9296875 14.51953125 C-84.36229889 13.5146743 -84.36229889 13.5146743 -84.8036499 12.48951721 C-86.68517222 7.81708505 -86.68517222 7.81708505 -85.79370117 4.88818359 C-78.03182761 -5.09452602 -62.77499813 -9.94589621 -50.79199219 -11.53857422 C-32.22198235 -13.38446019 -14.98596205 -12.07677856 0 0 Z " fill="#66D2EF" transform="translate(136.5078125,36.765625)"/>
<path d="M0 0 C5.15066709 2.94443672 9.29312253 7.17609892 11.19140625 12.89453125 C12.57234857 20.72956188 12.19110176 27.79583565 8.265625 34.80078125 C4.91507149 39.12729874 0.3848455 41.58882725 -4.4375 44 C-11.80362256 44.67667793 -18.65554697 45.1903141 -24.7578125 40.5546875 C-31.38915903 34.41683653 -34.39698499 29.45050546 -34.9375 20.25 C-34.78802561 13.55686906 -32.86519466 9.00444847 -28.4375 4 C-20.25876749 -3.36822748 -10.00996365 -4.41040504 0 0 Z " fill="#FDFDFD" transform="translate(107.4375,74)"/>
</svg>
