<?xml version="1.0" encoding="UTF-8"?>
<svg version="1.1" xmlns="http://www.w3.org/2000/svg" width="192" height="192">
<path d="M0 0 C2.23177347 2.49866597 4.04797516 5.13446274 5.90625 7.921875 C10.42587776 14.56640238 15.99071801 20.19769236 22 25.5 C36.48555793 38.32878623 49.82206783 55.53410923 51.17700195 75.62451172 C51.75459263 102.06481798 46.1821902 123.7622069 27.8125 143.625 C19.2419865 151.729091 8.95895611 157.77315761 -2 162 C-3.06863281 162.41378906 -4.13726562 162.82757813 -5.23828125 163.25390625 C-25.26013656 169.7615761 -47.56494302 167.32684863 -66.25 158.25 C-85.72680373 148.26255508 -99.1299309 133.40476881 -107 113 C-107.41378906 111.93136719 -107.82757813 110.86273438 -108.25390625 109.76171875 C-114.58903688 90.27070711 -112.50283153 68.01812832 -103.8125 49.6875 C-98.61215641 39.84240508 -89.59184453 28.47696521 -79 24 C-75.6474929 24.31429754 -73.25291369 25.5057027 -71 28 C-70.65167679 30.75393037 -70.81679089 33.20606109 -71 36 C-70.34773438 35.50628906 -69.69546875 35.01257812 -69.0234375 34.50390625 C-68.14945313 33.86324219 -67.27546875 33.22257812 -66.375 32.5625 C-65.51648438 31.92441406 -64.65796875 31.28632812 -63.7734375 30.62890625 C-60.68491808 28.81494485 -58.57844164 28.11032729 -55 28 C-52.63671875 29.109375 -52.63671875 29.109375 -51 31 C-50.64453125 33.453125 -50.64453125 33.453125 -50.8125 36.25 C-50.98344553 40.68868916 -50.77610763 44.63439456 -50 49 C-49.19175781 48.71125 -48.38351563 48.4225 -47.55078125 48.125 C-46.48214844 47.75375 -45.41351563 47.3825 -44.3125 47 C-43.25675781 46.62875 -42.20101562 46.2575 -41.11328125 45.875 C-38.21637944 45.0608143 -35.98299377 44.82290204 -33 45 C-33.061875 43.7625 -33.12375 42.525 -33.1875 41.25 C-33.12968015 28.97291869 -28.58977647 18.58745414 -20.1875 9.75 C-7.37541009 -2.27967221 -7.37541009 -2.27967221 0 0 Z " fill="#56525C" transform="translate(125,12)"/>
<path d="M0 0 C2.86560282 1.28269841 3.99886671 3.08648658 5.86328125 5.60546875 C9.71567744 10.51314178 13.86592756 14.67311925 18.48828125 18.85546875 C30.68707882 30.02013582 43.85490954 44.00721489 45.25244141 61.43237305 C46.02995698 83.22770489 42.05656846 102.32536266 27.05078125 118.91796875 C26.52097656 119.52769531 25.99117188 120.13742188 25.4453125 120.765625 C14.23988097 132.87600825 -3.04023413 140.53761373 -19.40234375 141.203125 C-39.55578061 141.66786203 -56.59839099 137.65291991 -71.94921875 123.91796875 C-73.07070312 122.93570313 -73.07070312 122.93570313 -74.21484375 121.93359375 C-85.76291733 111.17110341 -94.26534663 95.46353128 -95.07202148 79.4855957 C-95.58875672 61.71084598 -94.79968195 45.9684348 -83.0078125 31.54296875 C-81.38254134 29.86001573 -79.84252891 28.29174261 -77.94921875 26.91796875 C-77.28921875 26.91796875 -76.62921875 26.91796875 -75.94921875 26.91796875 C-75.75585938 27.61664063 -75.5625 28.3153125 -75.36328125 29.03515625 C-75.10289063 29.94523437 -74.8425 30.8553125 -74.57421875 31.79296875 C-74.31898437 32.69789062 -74.06375 33.6028125 -73.80078125 34.53515625 C-73.08878725 37.06366601 -73.08878725 37.06366601 -70.94921875 38.91796875 C-68.06524375 39.13587594 -68.06524375 39.13587594 -64.94921875 37.91796875 C-63.19421438 36.18779935 -61.72221934 34.38619803 -60.24609375 32.4140625 C-59.818125 31.92035156 -59.39015625 31.42664063 -58.94921875 30.91796875 C-58.28921875 30.91796875 -57.62921875 30.91796875 -56.94921875 30.91796875 C-56.66949219 31.77519531 -56.38976563 32.63242187 -56.1015625 33.515625 C-51.62305741 46.28872474 -45.91912041 51.00877679 -33.94921875 56.91796875 C-33.94921875 57.90796875 -33.94921875 58.89796875 -33.94921875 59.91796875 C-35.41681641 59.97404297 -35.41681641 59.97404297 -36.9140625 60.03125 C-50.33775172 60.4061492 -50.33775172 60.4061492 -61.51171875 67.04296875 C-64.10731455 70.49171302 -64.721691 73.25635156 -64.40234375 77.53125 C-62.49595599 87.57265451 -57.3021327 96.79216837 -49.01171875 102.79296875 C-38.25316744 109.77148852 -26.4955128 111.90877881 -13.83984375 109.26953125 C-4.66114472 106.23589343 3.72804033 100.06435881 9.05078125 91.91796875 C14.15068817 81.3585461 15.95013333 70.30929148 13.05078125 58.73046875 C9.68452142 49.18224578 3.10719698 41.40291348 -5.94921875 36.91796875 C-9.56965337 35.42196014 -13.2163631 34.1041098 -16.94921875 32.91796875 C-17.72978278 23.13489951 -16.43967936 14.54823993 -10.1640625 6.6796875 C-3.50643096 -0.14756523 -3.50643096 -0.14756523 0 0 Z " fill="#F88860" transform="translate(119.94921875,26.08203125)"/>
<path d="M0 0 C5.26223106 4.33068733 8.67443952 9.40747278 11.69921875 15.45703125 C13.09198335 34.89604571 13.09198335 34.89604571 6.69921875 42.45703125 C5.93738281 43.41996094 5.93738281 43.41996094 5.16015625 44.40234375 C-0.01080492 50.25949882 -5.98181599 52.9760443 -13.703125 53.8359375 C-23.0619442 54.15094662 -29.83905747 52.40345261 -37.61328125 47.26953125 C-43.2384527 41.38272392 -45.85923334 35.55207629 -46.30078125 27.45703125 C-41.6862537 23.96089225 -37.53793224 23.99510145 -31.98828125 23.70703125 C-25.04139962 23.18552127 -20.39614754 22.4593651 -15.48046875 17.11328125 C-12.61313114 13.0876152 -13.30078125 12.4794143 -13.30078125 6.45703125 C-20.23078125 2.49703125 -20.23078125 2.49703125 -27.30078125 -1.54296875 C-26.97078125 -2.53296875 -26.64078125 -3.52296875 -26.30078125 -4.54296875 C-17.51612915 -7.78740829 -7.50937582 -5.03599906 0 0 Z " fill="#AFA4EA" transform="translate(112.30078125,72.54296875)"/>
</svg>
