<?xml version="1.0" encoding="UTF-8"?>
<svg version="1.1" xmlns="http://www.w3.org/2000/svg" width="192" height="192">
<path d="M0 0 C1.04607422 0.83337891 1.04607422 0.83337891 2.11328125 1.68359375 C6.89766979 5.83517739 6.89766979 5.83517739 7.18359375 9.08984375 C7.05989833 10.58734791 6.93487111 12.0847426 6.80859375 13.58203125 C7.20598704 18.60216276 10.49473746 22.57594045 14 26 C16.63034486 27.10697911 18.09386777 27.11861764 21 27 C30.47668955 50.40235931 31.56207903 73.24048507 22 97 C12.11554502 118.75700147 -5.90973592 133.56818703 -27.8203125 141.90625 C-31.85758676 143.29499299 -35.28919707 144.16323243 -39.5625 144.25 C-40.70912109 144.28867187 -40.70912109 144.28867187 -41.87890625 144.328125 C-44 144 -44 144 -45.265625 142.52734375 C-48.09860958 140.03253075 -51.57745947 140.42285058 -55.1875 140.3125 C-55.93708984 140.27833984 -56.68667969 140.24417969 -57.45898438 140.20898438 C-59.30546838 140.12665706 -61.15270994 140.06164719 -63 140 C-63.66 141.65 -64.32 143.3 -65 145 C-87.87065875 140.83862274 -106.95208082 130.41663958 -121.125 111.78515625 C-134.25810223 92.27702732 -139.52693799 69.51202542 -135.24609375 46.1484375 C-131.51153901 29.34102601 -131.51153901 29.34102601 -125 25 C-122.3125 24.875 -122.3125 24.875 -120 25 C-119.773125 24.319375 -119.54625 23.63875 -119.3125 22.9375 C-117.8943886 19.76363162 -116.1058628 17.53827764 -113.828125 14.94140625 C-112.69125879 12.82859267 -112.69125879 12.82859267 -113.859375 9.77734375 C-114.23578125 8.86082031 -114.6121875 7.94429687 -115 7 C-102.16328334 -7.36489721 -85.88604262 -15.57262055 -67 -19 C-66.16597656 -19.15597656 -65.33195312 -19.31195313 -64.47265625 -19.47265625 C-41.21447397 -22.66927846 -17.66184295 -15.077183 0 0 Z " fill="#50505B" transform="translate(149,33)"/>
<path d="M0 0 C0.66 0 1.32 0 2 0 C2.41223312 1.0311795 2.41223312 1.0311795 2.83279419 2.08319092 C5.44526849 8.61548835 8.06274113 15.14575609 10.68560982 21.67388535 C12.03332977 25.02875416 13.3792192 28.38433146 14.72070312 31.74169922 C16.01948363 34.99198521 17.32336193 38.24018551 18.63055038 41.48709869 C19.3616304 43.30665567 20.08764534 45.12824519 20.81350708 46.94989014 C28.72372184 67.3734915 28.72372184 67.3734915 45 81 C49.33979725 82.68903466 53.23502827 83.3409201 57.875 83.625 C59.02742188 83.69976562 60.17984375 83.77453125 61.3671875 83.8515625 C62.67042969 83.92503906 62.67042969 83.92503906 64 84 C62.13564303 86.99278356 60.24190301 89.96592949 58.33251953 92.93017578 C57.33876601 94.47378926 56.34804077 96.0193531 55.35888672 97.56591797 C53.52257222 100.42722169 51.66897923 103.27674595 49.8125 106.125 C49.20647949 107.0739917 48.60045898 108.0229834 47.97607422 109.00073242 C47.39229004 109.88994385 46.80850586 110.77915527 46.20703125 111.6953125 C45.6860083 112.49984863 45.16498535 113.30438477 44.62817383 114.13330078 C42.7470559 116.29000009 41.82785191 116.77401837 39 117 C36.37244755 116.15373874 34.00247051 115.25292811 31.5 114.125 C30.79093506 113.80764893 30.08187012 113.49029785 29.35131836 113.16333008 C11.3547974 104.77008835 -0.96792939 90.22148025 -7.875 71.75 C-9.50808127 66.83469308 -10.87667427 62.19729861 -11 57 C-11.03867187 55.80632812 -11.07734375 54.61265625 -11.1171875 53.3828125 C-11.36624944 42.07022878 -10.67017309 31.61863003 -5.70703125 21.25390625 C-4.82043258 18.42756683 -5.13621387 16.81073265 -6 14 C-6.66 13.01 -7.32 12.02 -8 11 C-6.85539001 9.35331565 -5.70927742 7.70767566 -4.5625 6.0625 C-3.92441406 5.14597656 -3.28632812 4.22945312 -2.62890625 3.28515625 C-1 1 -1 1 0 0 Z " fill="#62DEBC" transform="translate(36,47)"/>
<path d="M0 0 C13.2 0 26.4 0 40 0 C42.20110053 8.07070196 43.5250214 14.15806074 43.4375 22.25 C43.42920166 23.25144043 43.42090332 24.25288086 43.41235352 25.28466797 C43.00186037 43.44862426 36.04519631 58.48480706 24 72 C23.26136719 72.8559375 22.52273437 73.711875 21.76171875 74.59375 C12.2010332 84.98375852 -0.03382687 90.09664941 -13.828125 92.4375 C-16.19194456 92.85378767 -16.19194456 92.85378767 -18 95 C-18.66 96.65 -19.32 98.3 -20 100 C-24.95 100 -29.9 100 -35 100 C-33.53600826 96.34002064 -32.34850946 93.76907915 -30.23779297 90.58374023 C-29.68316376 89.7419371 -29.12853455 88.90013397 -28.55709839 88.03282166 C-27.6587175 86.68432884 -27.6587175 86.68432884 -26.7421875 85.30859375 C-26.12030548 84.36750259 -25.49842346 83.42641144 -24.85769653 82.45680237 C-22.86768843 79.44754724 -20.8714275 76.44249916 -18.875 73.4375 C-17.55427774 71.44232848 -16.23396097 69.44688847 -14.9140625 67.45117188 C-5.75017929 53.6035485 -5.75017929 53.6035485 -1.35644531 47.05419922 C-0.28668457 45.45922607 -0.28668457 45.45922607 0.8046875 43.83203125 C1.38976074 42.96425049 1.97483398 42.09646973 2.57763672 41.20239258 C7.85817694 33.02598453 7.86717872 24.47298498 7 15 C5.54260272 9.36330169 2.99228454 4.9871409 0 0 Z " fill="#FDCB57" transform="translate(122,73)"/>
<path d="M0 0 C3.25702292 2.79599362 6.44668626 5.63882493 9.48339844 8.67553711 C11.30871094 8.45897461 11.30871094 8.45897461 13.17089844 8.23803711 C16.26636207 8.13071264 17.19416031 8.41334606 19.53027344 10.53100586 C22.39544895 14.15983352 24.46726004 17.14796331 25.48339844 21.67553711 C24.55347076 21.67918274 23.62354309 21.68282837 22.66543579 21.68658447 C13.86808579 21.72457439 5.07110237 21.78155145 -3.72598839 21.85943985 C-8.24784087 21.8988173 -12.76950146 21.93105321 -17.29150391 21.9465332 C-21.66192281 21.9617643 -26.0318138 21.99632295 -30.40199661 22.04384613 C-32.06275447 22.05859377 -33.72358773 22.0665743 -35.38441086 22.06742096 C-48.34847003 22.08066706 -57.86955448 23.44120412 -67.59863281 32.63647461 C-69.97983759 35.16802021 -71.78666425 37.66695048 -73.51660156 40.67553711 C-76.01342282 38.17871585 -76.75952662 35.89257117 -78.04785156 32.60131836 C-78.52867188 31.37606445 -79.00949219 30.15081055 -79.50488281 28.88842773 C-79.87734131 27.92706909 -79.87734131 27.92706909 -80.25732422 26.94628906 C-81.00794001 25.01037613 -81.76741546 23.07812876 -82.52832031 21.14624023 C-84.78507614 15.37253907 -86.88136065 9.65640227 -88.51660156 3.67553711 C-65.89646194 -18.94460251 -24.27620954 -20.09940923 0 0 Z " fill="#FB6A84" transform="translate(137.5166015625,39.324462890625)"/>
<path d="M0 0 C6.02328119 2.71458955 9.88314269 6.42137634 13.13671875 12.16015625 C15.43464401 19.05393204 15.13828025 26.95194331 12.19921875 33.59765625 C8.81834481 39.54566942 3.54604714 43.02371345 -2.86328125 45.16015625 C-9.9985949 45.84342842 -16.22632605 46.12980895 -22.1484375 41.72265625 C-27.03442347 37.27073282 -31.44249634 32.75675991 -32.234375 25.98828125 C-32.37624893 18.34378001 -32.20057107 12.8977428 -26.86328125 7.16015625 C-19.01305125 -0.65502808 -11.0685747 -3.24658057 0 0 Z " fill="#66D2F0" transform="translate(103.86328125,73.83984375)"/>
</svg>
