<?xml version="1.0" encoding="UTF-8" standalone="no"?>
<!-- Created with Inkscape (http://www.inkscape.org/) -->

<svg
   width="48"
   height="48"
   viewBox="0 0 12.7 12.7"
   version="1.1"
   id="svg5"
   inkscape:version="1.1.2 (0a00cf5339, 2022-02-04)"
   sodipodi:docname="desenho-1.svg"
   xmlns:inkscape="http://www.inkscape.org/namespaces/inkscape"
   xmlns:sodipodi="http://sodipodi.sourceforge.net/DTD/sodipodi-0.dtd"
   xmlns="http://www.w3.org/2000/svg"
   xmlns:svg="http://www.w3.org/2000/svg">
  <sodipodi:namedview
     id="namedview7"
     pagecolor="#ffffff"
     bordercolor="#666666"
     borderopacity="1.0"
     inkscape:pageshadow="2"
     inkscape:pageopacity="0.0"
     inkscape:pagecheckerboard="0"
     inkscape:document-units="mm"
     showgrid="false"
     inkscape:snap-global="false"
     units="px"
     inkscape:zoom="10.25"
     inkscape:cx="24.04878"
     inkscape:cy="24"
     inkscape:window-width="1366"
     inkscape:window-height="696"
     inkscape:window-x="0"
     inkscape:window-y="0"
     inkscape:window-maximized="1"
     inkscape:current-layer="layer1" />
  <defs
     id="defs2" />
  <g
     inkscape:label="Camada 1"
     inkscape:groupmode="layer"
     id="layer1">
    <g
       id="g4151"
       transform="matrix(0.33562149,0,0,0.33562149,-35.86863,-58.449657)">
      <rect
         style="opacity:0.801;fill:#e99be6;fill-opacity:0.87;stroke:#ffffff;stroke-width:0.453;stroke-miterlimit:4;stroke-dasharray:none;stroke-opacity:1"
         id="rect858"
         width="35.81057"
         height="31.654537"
         x="107.88711"
         y="177.24635"
         ry="2.232286" />
      <path
         id="path2274"
         style="opacity:0.801;fill:#ffffff;fill-opacity:0.995124;stroke-width:0.2"
         d="m 433.71484,680.875 h -3.76757 c -0.19458,0 -0.38799,0.006 -0.58008,0.0156 -0.1921,0.01 -0.38289,0.0239 -0.57227,0.043 -0.18937,0.0191 -0.37607,0.042 -0.5625,0.0703 -0.18642,0.0283 -0.37144,0.0623 -0.55469,0.0996 -0.18324,0.0373 -0.36509,0.0789 -0.54492,0.125 -0.17983,0.0461 -0.35897,0.0958 -0.53515,0.15039 -0.17619,0.0546 -0.34918,0.11293 -0.52149,0.17578 -0.1723,0.0628 -0.34352,0.13027 -0.51172,0.20117 -0.16819,0.0709 -0.33419,0.14589 -0.49804,0.22461 -0.16386,0.0787 -0.3251,0.16173 -0.48438,0.24805 -0.15928,0.0863 -0.31623,0.17586 -0.4707,0.26953 -0.15448,0.0937 -0.30564,0.19022 -0.45508,0.29101 -0.14944,0.10079 -0.29724,0.20677 -0.44141,0.31446 -0.14416,0.10768 -0.28516,0.21768 -0.42382,0.33203 -0.13867,0.11434 -0.27527,0.23274 -0.40821,0.35351 -0.13293,0.12077 -0.2617,0.24413 -0.38867,0.3711 -0.12697,0.12696 -0.25227,0.25769 -0.37305,0.39062 -0.12077,0.13293 -0.23721,0.26759 -0.35156,0.40625 -0.11434,0.13867 -0.2263,0.28162 -0.33398,0.42578 -0.10769,0.14417 -0.21171,0.29002 -0.3125,0.43946 -0.10079,0.14943 -0.19735,0.3006 -0.29102,0.45507 -0.0937,0.15448 -0.18517,0.31143 -0.27148,0.47071 -0.0863,0.15928 -0.16737,0.32247 -0.2461,0.48633 -0.0787,0.16385 -0.1537,0.32985 -0.22461,0.49804 -0.0709,0.1682 -0.13832,0.33746 -0.20117,0.50977 -0.0628,0.1723 -0.12121,0.34725 -0.17578,0.52343 -0.0546,0.17619 -0.10629,0.35338 -0.15234,0.53321 -0.0461,0.17983 -0.0877,0.36168 -0.125,0.54492 -0.0373,0.18324 -0.0693,0.36826 -0.0977,0.55469 -0.0283,0.18642 -0.0532,0.37508 -0.0723,0.56445 -0.0191,0.18937 -0.0333,0.38017 -0.043,0.57227 -0.01,0.19209 -0.0137,0.38549 -0.0137,0.58007 v 1.95313 h 0.008 v 12.73633 c 0,1.72854 1.3906,3.11914 3.11914,3.11914 1.50684,0 2.75845,-1.05648 3.05468,-2.47266 v -13.95508 c 0,-0.11023 0.004,-0.21929 0.01,-0.32812 0.005,-0.10883 0.0126,-0.21693 0.0234,-0.32422 0.0108,-0.10729 0.025,-0.2147 0.041,-0.32031 0.0161,-0.10562 0.0336,-0.21064 0.0547,-0.31446 0.0211,-0.10381 0.0462,-0.20671 0.0723,-0.30859 0.0261,-0.10188 0.0531,-0.20097 0.084,-0.30078 0.0309,-0.0998 0.064,-0.19926 0.0996,-0.29688 0.0356,-0.0976 0.0751,-0.19377 0.11523,-0.28906 0.0402,-0.0953 0.0824,-0.19037 0.12696,-0.2832 0.0446,-0.0928 0.0917,-0.1832 0.14062,-0.27344 0.0489,-0.0902 0.0993,-0.18006 0.15235,-0.26758 0.0531,-0.0875 0.10891,-0.17315 0.16601,-0.25781 0.0571,-0.0847 0.11478,-0.16832 0.17578,-0.25 0.061,-0.0817 0.12468,-0.16167 0.18946,-0.24023 0.0648,-0.0786 0.13079,-0.15516 0.19922,-0.23047 0.0684,-0.0753 0.139,-0.14877 0.21093,-0.22071 0.0719,-0.0719 0.1454,-0.14251 0.22071,-0.21093 0.0753,-0.0684 0.15192,-0.13444 0.23046,-0.19922 0.0786,-0.0648 0.15856,-0.12845 0.24024,-0.18946 0.0817,-0.061 0.16534,-0.12063 0.25,-0.17773 0.0847,-0.0571 0.1703,-0.111 0.25781,-0.16406 0.0875,-0.0531 0.17734,-0.1054 0.26758,-0.1543 0.0902,-0.0489 0.18256,-0.0941 0.27539,-0.13867 0.0928,-0.0446 0.18596,-0.0887 0.28125,-0.12891 0.0953,-0.0402 0.19145,-0.0777 0.28906,-0.11328 0.0976,-0.0356 0.19707,-0.0687 0.29688,-0.0996 0.0998,-0.0309 0.20085,-0.0598 0.30273,-0.0859 0.10188,-0.0261 0.20478,-0.0492 0.3086,-0.0703 0.10381,-0.0211 0.20883,-0.0406 0.31445,-0.0566 0.10561,-0.0161 0.21107,-0.0282 0.31836,-0.0391 0.10729,-0.0108 0.21539,-0.0199 0.32422,-0.0254 0.10882,-0.005 0.21789,-0.008 0.32812,-0.008 h 2.45703 v -0.0137 h 18.35743 c 1.72854,0 3.11914,-1.39255 3.11914,-3.12109 0,-1.72854 -1.3906,-3.11914 -3.11914,-3.11914 z"
         transform="scale(0.26458333)" />
      <path
         id="path3175"
         style="opacity:0.801;fill:#ffffff;fill-opacity:0.995124;stroke-width:0.0529167"
         d="m 136.59547,180.18085 h 0.99684 c 0.0515,0 0.10266,0.002 0.15348,0.004 0.0508,0.003 0.10131,0.006 0.15141,0.0114 0.0501,0.005 0.0995,0.0111 0.14883,0.0186 0.0493,0.007 0.0983,0.0165 0.14676,0.0264 0.0485,0.01 0.0966,0.0209 0.14418,0.0331 0.0476,0.0122 0.095,0.0254 0.14159,0.0398 0.0466,0.0144 0.0924,0.0299 0.13798,0.0465 0.0456,0.0166 0.0909,0.0345 0.13539,0.0532 0.0445,0.0188 0.0884,0.0386 0.13177,0.0594 0.0434,0.0208 0.086,0.0428 0.12816,0.0656 0.0422,0.0228 0.0837,0.0465 0.12454,0.0713 0.0409,0.0248 0.0809,0.0503 0.12041,0.077 0.0395,0.0267 0.0786,0.0547 0.11679,0.0832 0.0381,0.0285 0.0755,0.0576 0.11213,0.0879 0.0367,0.0302 0.0728,0.0616 0.10801,0.0935 0.0352,0.0319 0.0692,0.0646 0.10284,0.0982 0.0336,0.0336 0.0667,0.0682 0.0987,0.10335 0.0319,0.0352 0.0628,0.0708 0.093,0.10749 0.0302,0.0367 0.0599,0.0745 0.0884,0.11265 0.0285,0.0382 0.056,0.0767 0.0827,0.11627 0.0267,0.0395 0.0522,0.0795 0.077,0.12041 0.0248,0.0409 0.049,0.0824 0.0718,0.12454 0.0228,0.0421 0.0443,0.0853 0.0651,0.12868 0.0208,0.0434 0.0407,0.0873 0.0594,0.13177 0.0188,0.0445 0.0366,0.0893 0.0532,0.13487 0.0166,0.0456 0.0321,0.0919 0.0465,0.1385 0.0144,0.0466 0.0281,0.0935 0.0403,0.14107 0.0122,0.0476 0.0232,0.0957 0.0331,0.14418 0.01,0.0485 0.0183,0.0974 0.0258,0.14676 0.007,0.0493 0.0141,0.0992 0.0191,0.14935 0.005,0.0501 0.009,0.10058 0.0114,0.15141 0.003,0.0508 0.004,0.10199 0.004,0.15348 v 0.51676 h -0.002 v 3.36982 c 0,0.45735 -0.36793,0.82528 -0.82527,0.82528 -0.39868,0 -0.72984,-0.27953 -0.80822,-0.65423 v -3.69228 c 0,-0.0292 -0.001,-0.058 -0.003,-0.0868 -0.001,-0.0288 -0.003,-0.0574 -0.006,-0.0858 -0.003,-0.0284 -0.007,-0.0568 -0.0108,-0.0847 -0.004,-0.0279 -0.009,-0.0557 -0.0145,-0.0832 -0.006,-0.0275 -0.0122,-0.0547 -0.0191,-0.0816 -0.007,-0.0269 -0.014,-0.0532 -0.0222,-0.0796 -0.008,-0.0264 -0.0169,-0.0527 -0.0264,-0.0786 -0.009,-0.0258 -0.0199,-0.0513 -0.0305,-0.0765 -0.0106,-0.0252 -0.0218,-0.0504 -0.0336,-0.0749 -0.0118,-0.0246 -0.0243,-0.0485 -0.0372,-0.0724 -0.0129,-0.0239 -0.0263,-0.0476 -0.0403,-0.0708 -0.014,-0.0231 -0.0288,-0.0458 -0.0439,-0.0682 -0.0151,-0.0224 -0.0304,-0.0445 -0.0465,-0.0661 -0.0161,-0.0216 -0.033,-0.0428 -0.0501,-0.0636 -0.0171,-0.0208 -0.0346,-0.0411 -0.0527,-0.061 -0.0181,-0.0199 -0.0368,-0.0394 -0.0558,-0.0584 -0.019,-0.019 -0.0385,-0.0377 -0.0584,-0.0558 -0.0199,-0.0181 -0.0402,-0.0356 -0.061,-0.0527 -0.0208,-0.0172 -0.0419,-0.034 -0.0636,-0.0501 -0.0216,-0.0161 -0.0438,-0.0319 -0.0661,-0.047 -0.0224,-0.0151 -0.0451,-0.0294 -0.0682,-0.0434 -0.0232,-0.014 -0.0469,-0.0279 -0.0708,-0.0408 -0.0239,-0.0129 -0.0483,-0.0249 -0.0729,-0.0367 -0.0246,-0.0118 -0.0492,-0.0235 -0.0744,-0.0341 -0.0252,-0.0106 -0.0507,-0.0206 -0.0765,-0.03 -0.0258,-0.009 -0.0521,-0.0182 -0.0785,-0.0264 -0.0264,-0.008 -0.0532,-0.0158 -0.0801,-0.0227 -0.027,-0.007 -0.0542,-0.013 -0.0816,-0.0186 -0.0275,-0.006 -0.0553,-0.0107 -0.0832,-0.015 -0.0279,-0.004 -0.0558,-0.007 -0.0842,-0.0103 -0.0284,-0.003 -0.057,-0.005 -0.0858,-0.007 -0.0288,-0.001 -0.0577,-0.002 -0.0868,-0.002 h -0.65009 v -0.004 h -4.85707 c -0.45734,0 -0.82527,-0.36845 -0.82527,-0.82579 0,-0.45734 0.36793,-0.82527 0.82527,-0.82527 z" />
      <path
         id="path3177"
         style="opacity:0.801;fill:#ffffff;fill-opacity:0.995124;stroke-width:0.0529167"
         d="m 114.79869,206.32893 h -0.99684 c -0.0515,0 -0.10266,-0.002 -0.15348,-0.004 -0.0508,-0.003 -0.10131,-0.006 -0.15141,-0.0114 -0.0501,-0.005 -0.0995,-0.0111 -0.14883,-0.0186 -0.0493,-0.007 -0.0983,-0.0165 -0.14676,-0.0264 -0.0485,-0.01 -0.0966,-0.0209 -0.14418,-0.0331 -0.0476,-0.0122 -0.095,-0.0254 -0.14159,-0.0398 -0.0466,-0.0144 -0.0924,-0.0299 -0.13798,-0.0465 -0.0456,-0.0166 -0.0909,-0.0345 -0.13539,-0.0532 -0.0445,-0.0188 -0.0884,-0.0386 -0.13177,-0.0594 -0.0434,-0.0208 -0.086,-0.0428 -0.12816,-0.0656 -0.0422,-0.0228 -0.0837,-0.0465 -0.12454,-0.0713 -0.0409,-0.0248 -0.0809,-0.0503 -0.12041,-0.077 -0.0395,-0.0267 -0.0786,-0.0547 -0.11679,-0.0832 -0.0381,-0.0285 -0.0755,-0.0576 -0.11213,-0.0879 -0.0367,-0.0302 -0.0728,-0.0616 -0.10801,-0.0935 -0.0352,-0.0319 -0.0692,-0.0646 -0.10284,-0.0982 -0.0336,-0.0336 -0.0667,-0.0682 -0.0987,-0.10335 -0.0319,-0.0352 -0.0628,-0.0708 -0.093,-0.10749 -0.0302,-0.0367 -0.0599,-0.0745 -0.0884,-0.11265 -0.0285,-0.0382 -0.056,-0.0767 -0.0827,-0.11627 -0.0267,-0.0395 -0.0522,-0.0795 -0.077,-0.12041 -0.0248,-0.0409 -0.049,-0.0824 -0.0718,-0.12454 -0.0228,-0.0421 -0.0443,-0.0853 -0.0651,-0.12868 -0.0208,-0.0434 -0.0407,-0.0873 -0.0594,-0.13177 -0.0188,-0.0445 -0.0366,-0.0893 -0.0532,-0.13487 -0.0166,-0.0456 -0.0321,-0.0919 -0.0465,-0.1385 -0.0144,-0.0466 -0.0281,-0.0935 -0.0403,-0.14107 -0.0122,-0.0476 -0.0232,-0.0957 -0.0331,-0.14418 -0.01,-0.0485 -0.0183,-0.0974 -0.0258,-0.14676 -0.007,-0.0493 -0.0141,-0.0992 -0.0191,-0.14935 -0.005,-0.0501 -0.009,-0.10058 -0.0114,-0.15141 -0.003,-0.0508 -0.004,-0.10199 -0.004,-0.15348 v -0.51676 h 0.002 v -3.36982 c 0,-0.45735 0.36793,-0.82528 0.82527,-0.82528 0.39868,0 0.72984,0.27953 0.80822,0.65423 v 3.69228 c 0,0.0292 10e-4,0.058 0.003,0.0868 10e-4,0.0288 0.003,0.0574 0.006,0.0858 0.003,0.0284 0.007,0.0568 0.0108,0.0847 0.004,0.0279 0.009,0.0557 0.0145,0.0832 0.006,0.0275 0.0122,0.0547 0.0191,0.0816 0.007,0.0269 0.014,0.0532 0.0222,0.0796 0.008,0.0264 0.0169,0.0527 0.0264,0.0786 0.009,0.0258 0.0199,0.0513 0.0305,0.0765 0.0106,0.0252 0.0218,0.0504 0.0336,0.0749 0.0118,0.0246 0.0243,0.0485 0.0372,0.0724 0.0129,0.0239 0.0263,0.0476 0.0403,0.0708 0.014,0.0231 0.0288,0.0458 0.0439,0.0682 0.0151,0.0224 0.0304,0.0445 0.0465,0.0661 0.0161,0.0216 0.033,0.0428 0.0501,0.0636 0.0171,0.0208 0.0346,0.0411 0.0527,0.061 0.0181,0.0199 0.0368,0.0394 0.0558,0.0584 0.019,0.019 0.0385,0.0377 0.0584,0.0558 0.0199,0.0181 0.0402,0.0356 0.061,0.0527 0.0208,0.0172 0.0419,0.034 0.0636,0.0501 0.0216,0.0161 0.0438,0.0319 0.0661,0.047 0.0224,0.0151 0.0451,0.0294 0.0682,0.0434 0.0232,0.014 0.0469,0.0279 0.0708,0.0408 0.0239,0.0129 0.0483,0.0249 0.0729,0.0367 0.0246,0.0118 0.0492,0.0235 0.0744,0.0341 0.0252,0.0106 0.0507,0.0206 0.0765,0.03 0.0258,0.009 0.0521,0.0182 0.0785,0.0264 0.0264,0.008 0.0532,0.0158 0.0801,0.0227 0.027,0.007 0.0542,0.013 0.0816,0.0186 0.0275,0.006 0.0553,0.0107 0.0832,0.015 0.0279,0.004 0.0558,0.007 0.0842,0.0103 0.0284,0.003 0.057,0.005 0.0858,0.007 0.0288,10e-4 0.0577,0.002 0.0868,0.002 h 0.65009 v 0.004 h 4.85707 c 0.45734,0 0.82527,0.36845 0.82527,0.82579 0,0.45734 -0.36793,0.82527 -0.82527,0.82527 z" />
      <path
         id="path3179"
         style="opacity:0.801;fill:#ffffff;fill-opacity:0.995124;stroke-width:0.0529167"
         d="m 136.61855,206.32893 h 0.99684 c 0.0515,0 0.10266,-0.002 0.15348,-0.004 0.0508,-0.003 0.10131,-0.006 0.15141,-0.0114 0.0501,-0.005 0.0995,-0.0111 0.14883,-0.0186 0.0493,-0.007 0.0983,-0.0165 0.14676,-0.0264 0.0485,-0.01 0.0966,-0.0209 0.14418,-0.0331 0.0476,-0.0122 0.095,-0.0254 0.14159,-0.0398 0.0466,-0.0144 0.0924,-0.0299 0.13798,-0.0465 0.0456,-0.0166 0.0909,-0.0345 0.13539,-0.0532 0.0445,-0.0188 0.0884,-0.0386 0.13177,-0.0594 0.0434,-0.0208 0.086,-0.0428 0.12816,-0.0656 0.0422,-0.0228 0.0837,-0.0465 0.12454,-0.0713 0.0409,-0.0248 0.0809,-0.0503 0.12041,-0.077 0.0395,-0.0267 0.0786,-0.0547 0.11679,-0.0832 0.0381,-0.0285 0.0755,-0.0576 0.11213,-0.0879 0.0367,-0.0302 0.0728,-0.0616 0.10801,-0.0935 0.0352,-0.0319 0.0692,-0.0646 0.10284,-0.0982 0.0336,-0.0336 0.0667,-0.0682 0.0987,-0.10335 0.0319,-0.0352 0.0628,-0.0708 0.093,-0.10749 0.0302,-0.0367 0.0599,-0.0745 0.0884,-0.11265 0.0285,-0.0382 0.056,-0.0767 0.0827,-0.11627 0.0267,-0.0395 0.0522,-0.0795 0.077,-0.12041 0.0248,-0.0409 0.049,-0.0824 0.0718,-0.12454 0.0228,-0.0421 0.0443,-0.0853 0.0651,-0.12868 0.0208,-0.0434 0.0407,-0.0873 0.0594,-0.13177 0.0188,-0.0445 0.0366,-0.0893 0.0532,-0.13487 0.0166,-0.0456 0.0321,-0.0919 0.0465,-0.1385 0.0144,-0.0466 0.0281,-0.0935 0.0403,-0.14107 0.0122,-0.0476 0.0232,-0.0957 0.0331,-0.14418 0.01,-0.0485 0.0183,-0.0974 0.0258,-0.14676 0.007,-0.0493 0.0141,-0.0992 0.0191,-0.14935 0.005,-0.0501 0.009,-0.10058 0.0114,-0.15141 0.003,-0.0508 0.004,-0.10199 0.004,-0.15348 v -0.51676 h -0.002 v -3.36982 c 0,-0.45735 -0.36793,-0.82528 -0.82527,-0.82528 -0.39868,0 -0.72984,0.27953 -0.80822,0.65423 v 3.69228 c 0,0.0292 -10e-4,0.058 -0.003,0.0868 -0.001,0.0288 -0.003,0.0574 -0.006,0.0858 -0.003,0.0284 -0.007,0.0568 -0.0108,0.0847 -0.004,0.0279 -0.009,0.0557 -0.0145,0.0832 -0.006,0.0275 -0.0122,0.0547 -0.0191,0.0816 -0.007,0.0269 -0.014,0.0532 -0.0222,0.0796 -0.008,0.0264 -0.0169,0.0527 -0.0264,0.0786 -0.009,0.0258 -0.0199,0.0513 -0.0305,0.0765 -0.0106,0.0252 -0.0218,0.0504 -0.0336,0.0749 -0.0118,0.0246 -0.0243,0.0485 -0.0372,0.0724 -0.0129,0.0239 -0.0263,0.0476 -0.0403,0.0708 -0.014,0.0231 -0.0288,0.0458 -0.0439,0.0682 -0.0151,0.0224 -0.0304,0.0445 -0.0465,0.0661 -0.0161,0.0216 -0.033,0.0428 -0.0501,0.0636 -0.0171,0.0208 -0.0346,0.0411 -0.0527,0.061 -0.0181,0.0199 -0.0368,0.0394 -0.0558,0.0584 -0.019,0.019 -0.0385,0.0377 -0.0584,0.0558 -0.0199,0.0181 -0.0402,0.0356 -0.061,0.0527 -0.0208,0.0172 -0.0419,0.034 -0.0636,0.0501 -0.0216,0.0161 -0.0438,0.0319 -0.0661,0.047 -0.0224,0.0151 -0.0451,0.0294 -0.0682,0.0434 -0.0232,0.014 -0.0469,0.0279 -0.0708,0.0408 -0.0239,0.0129 -0.0483,0.0249 -0.0729,0.0367 -0.0246,0.0118 -0.0492,0.0235 -0.0744,0.0341 -0.0252,0.0106 -0.0507,0.0206 -0.0765,0.03 -0.0258,0.009 -0.0521,0.0182 -0.0785,0.0264 -0.0264,0.008 -0.0532,0.0158 -0.0801,0.0227 -0.027,0.007 -0.0542,0.013 -0.0816,0.0186 -0.0275,0.006 -0.0553,0.0107 -0.0832,0.015 -0.0279,0.004 -0.0558,0.007 -0.0842,0.0103 -0.0284,0.003 -0.057,0.005 -0.0858,0.007 -0.0288,10e-4 -0.0577,0.002 -0.0868,0.002 h -0.65009 v 0.004 h -4.85707 c -0.45734,0 -0.82527,0.36845 -0.82527,0.82579 0,0.45734 0.36793,0.82527 0.82527,0.82527 z" />
    </g>
    <path
       fill="#ffffff"
       stroke-width="0.0231405"
       d="M 5.8871901,4.7301633 V 5.4243791 H 5.4243795 V 7.969836 H 8.4326463 V 5.4243791 H 7.9698357 V 4.7301633 Z M 6.1185947,4.9615686 H 7.7384311 V 5.4243791 H 6.1185947 Z M 4.2673543,5.4243791 V 7.969836 H 5.1929749 V 5.4243791 Z m 2.6611579,0.2314046 c 0.5768944,0 1.0413235,0.4651242 1.0413235,1.0413228 0,0.5768944 -0.4651249,1.0413235 -1.0413235,1.0413235 -0.5768924,0 -1.0413221,-0.4651229 -1.0413221,-1.0413235 0,-0.5768924 0.4651235,-1.0413228 1.0413221,-1.0413228 m 0,0.2314053 c -0.4486947,0 -0.8099175,0.3612241 -0.8099175,0.8099175 0,0.4486947 0.3612228,0.8099189 0.8099175,0.8099189 0.4486954,0 0.8099189,-0.3612242 0.8099189,-0.8099189 0,-0.4486934 -0.3612235,-0.8099175 -0.8099189,-0.8099175"
       id="path64"
       style="clip-rule:evenodd;fill:#ffffff;fill-rule:evenodd;image-rendering:optimizeQuality;shape-rendering:geometricPrecision;text-rendering:geometricPrecision"
       sodipodi:nodetypes="ccccccccccccccccccccsssccsssc" />
  </g>
</svg>
